<?xml version="1.0" encoding="utf-8" ?>
<svg xmlns="http://www.w3.org/2000/svg" xmlns:xlink="http://www.w3.org/1999/xlink" width="879" height="879">
	<path fill="#151313" fill-opacity="0.97647059" transform="matrix(0.858398 0 0 0.858398 -0.000244141 0)" d="M482.537 659.023C483.156 661.283 483.593 662.781 482.528 664.989L481.572 665.555C480.516 664.931 480.12 664.486 479.853 663.241C479.629 662.195 479.586 661.062 479.5 659.995C480.789 659.868 481.505 659.884 482.537 659.023Z"/>
	<path fill="#151313" fill-opacity="0.94901961" transform="matrix(0.858398 0 0 0.858398 -0.000244141 0)" d="M208.516 613.219C209.928 609.878 211.257 606.53 213.166 603.434C212.96 604.671 212.736 605.897 212.62 607.147L212.928 607.415L212.712 608.906L212.95 608.435C213.391 607.579 213.796 606.432 214.774 606.071C214.874 606.034 214.982 606.025 215.086 606.003Q213.482 609.69 211.836 613.358L211.412 612.316C210.682 612.609 209.997 612.848 209.232 613.045C208.994 613.106 208.755 613.161 208.516 613.219Z"/>
	<path fill="#151313" fill-opacity="0.98823529" transform="matrix(0.858398 0 0 0.858398 -0.000244141 0)" d="M584.57 828.024C585.605 828.302 586.765 828.508 587.756 828.9C587.463 831.364 587.746 833.01 588.39 835.371C587.702 836.361 587.243 836.967 586.196 837.58C584.249 834.24 584.343 831.742 584.57 828.024Z"/>
	<path fill="#151313" fill-opacity="0.97254902" transform="matrix(0.858398 0 0 0.858398 -0.000244141 0)" d="M538.002 798.85C538.486 798.12 539.001 797.413 539.509 796.699C540.593 796.379 541.513 796.259 542.642 796.209C540.166 798.915 540.986 801.784 537.987 805.191C536.567 804.922 535.732 804.676 534.478 803.889C536.062 802.448 537.475 800.972 538.002 798.85Z"/>
	<path fill="#151313" fill-opacity="0.97647059" transform="matrix(0.858398 0 0 0.858398 -0.000244141 0)" d="M588.39 835.371C591.042 838.371 594.795 841.745 595.363 845.849L593.614 845.696L592.877 844.159C592.14 844.926 593.098 845.376 591.933 846.406C590.586 842.771 588.589 840.541 586.196 837.58C587.243 836.967 587.702 836.361 588.39 835.371Z"/>
	<path fill="#151313" fill-opacity="0.96078432" transform="matrix(0.858398 0 0 0.858398 -0.000244141 0)" d="M595.89 720.353L596.238 719.385L594.971 717.694L595.243 716.91L596.585 716.385C599.676 718.776 602.868 721.267 605.188 724.448C604.214 725.17 603.389 725.441 603.238 726.736C603.209 726.985 603.239 727.237 603.239 727.488C601.166 724.729 598.558 722.509 595.89 720.353Z"/>
	<path fill="#151313" fill-opacity="0.97254902" transform="matrix(0.858398 0 0 0.858398 -0.000244141 0)" d="M603.239 727.488C603.239 727.237 603.209 726.985 603.238 726.736C603.389 725.441 604.214 725.17 605.188 724.448C609.065 728.44 613.523 733.945 615.775 739.042L614.299 739.867L613.806 741.929C610.626 736.836 607.045 732.12 603.239 727.488Z"/>
	<defs>
		<linearGradient id="gradient_0" gradientUnits="userSpaceOnUse" x1="254.72086" y1="877.66553" x2="252.27914" y2="876.83447">
			<stop offset="0" stop-color="#040404" stop-opacity="0.94901961"/>
			<stop offset="1" stop-color="#030102" stop-opacity="0.98431373"/>
		</linearGradient>
	</defs>
	<path fill="url(#gradient_0)" transform="matrix(0.858398 0 0 0.858398 -0.000244141 0)" d="M257.131 867.269C257.708 868.379 258.113 869.517 259.28 870.113C257.697 874.716 254.245 883.653 251.137 887.214C250.455 887.996 250.348 888.259 249.281 888.327C249.215 888.165 249.128 888.009 249.084 887.84C247.967 883.586 255.036 871.455 257.131 867.269Z"/>
	<path fill="#151313" transform="matrix(0.858398 0 0 0.858398 -0.000244141 0)" d="M813.535 891.764C814.935 888.522 813.16 885.326 814.334 882.356L815.957 883.664C816.464 891.022 818.972 904.517 816.359 910.996L815.664 911.115C812.9 906.826 813.065 896.882 813.535 891.764Z"/>
	<path fill="#151313" fill-opacity="0.94117647" transform="matrix(0.858398 0 0 0.858398 -0.000244141 0)" d="M586.642 692.619C591.867 695.523 595.112 701.301 596.628 706.962C597.276 709.381 597.977 713.952 596.68 716.228C596.65 716.281 596.617 716.332 596.585 716.385L595.243 716.91L594.971 717.694L596.238 719.385L595.89 720.353C594.221 719.424 592.218 718.092 591.117 716.532C590.621 715.829 590.801 716 590.958 715.025C591.713 714.426 592.159 714.288 593.1 714.239C593.414 714.222 593.729 714.214 594.043 714.202C594.574 713.415 594.599 712.95 594.646 712.016C594.912 706.715 589.953 699.845 586.53 696.122L586.87 695.871C588.751 696.62 590.001 698.234 591.373 699.672L591.936 699.647C590.876 697.213 588.236 695.721 587.001 693.344C586.876 693.105 586.761 692.861 586.642 692.619Z"/>
	<path fill="#151313" fill-opacity="0.97647059" transform="matrix(0.858398 0 0 0.858398 -0.000244141 0)" d="M315.48 878.093C314.824 882.532 313.836 887.407 312.563 891.707C312.01 893.573 311.249 896.218 309.471 897.169C309.139 896.792 309.067 896.763 308.858 896.22C306.872 891.036 316.028 864.841 318.662 858.811C318.408 863.516 313.188 874.087 314.9 877.837L315.48 878.093Z"/>
	<path fill="#151313" fill-opacity="0.98431373" transform="matrix(0.858398 0 0 0.858398 -0.000244141 0)" d="M834.215 727.913L835.092 727.619C835.326 726.369 835.309 724.732 836.226 723.847C836.253 725.249 836.294 726.649 836.301 728.051C836.308 729.675 836.577 730.648 837.218 732.142C836.966 740.489 835.601 748.692 833.928 756.858C833.131 757.51 832.164 758.71 831.135 758.608C830.428 758.538 830.697 758.608 830.214 758.437C832.437 748.331 833.508 738.219 834.215 727.913Z"/>
	<path fill="#151313" transform="matrix(0.858398 0 0 0.858398 -0.000244141 0)" d="M561.893 766.642C562.563 767.01 563.096 767.454 563.691 767.93C567.443 775.748 562.933 787.998 560.347 795.771C559.705 795.395 558.765 794.959 558.249 794.434C558.114 794.296 557.648 793.684 557.621 793.394C557.37 790.777 561.452 771.843 561.893 766.642Z"/>
	<path fill="#151313" transform="matrix(0.858398 0 0 0.858398 -0.000244141 0)" d="M416.32 928.869C416.361 924.701 416.138 920.065 419.234 916.812C420.361 915.628 422.293 914.295 423.96 914.113C425.22 913.976 426.066 914.541 427.015 915.259L427.471 916.361C426.582 918.184 425.11 918.794 423.324 919.544C422.239 920 421.345 920.276 420.803 921.419C419.778 923.579 419.553 927.532 419.639 929.93C420.735 933.594 423.046 935.599 422.829 939.735L422.086 940.32C421.82 940.172 421.539 940.05 421.288 939.878C417.83 937.498 416.709 932.723 416.32 928.869Z"/>
	<path fill="#151313" transform="matrix(0.858398 0 0 0.858398 -0.000244141 0)" d="M566.002 749.138L567.614 749.871C571.641 754.573 573.324 776.174 573.225 782.804C571.96 782.727 571.323 782.627 570.255 781.93C569.33 779.282 565.723 752.059 566.002 749.138Z"/>
	<path fill="#151313" fill-opacity="0.98823529" transform="matrix(0.858398 0 0 0.858398 -0.000244141 0)" d="M401.144 833.295C401.218 833.469 401.317 833.634 401.366 833.817C401.858 835.672 400.556 838.555 400.521 840.59C400.44 845.27 405.882 846.95 408.009 850.562L407.689 849.854L408.461 850.66L409.009 850.084C406.41 844.532 400.679 844.459 402.76 836.827C402.992 835.975 402.983 835.726 402.712 834.91C403.84 834.772 403.362 834.784 404.143 834.8C403.488 837.217 402.591 840.008 403.535 842.474C404.857 845.925 409.007 847.082 412.123 848.325C408.763 853.148 404.079 857.662 402.621 863.512C401.786 866.86 404.618 870.375 402.435 873.487L401.525 873.362Q401.051 872.758 400.656 872.099Q400.261 871.441 399.951 870.738Q399.641 870.036 399.421 869.3Q399.2 868.564 399.073 867.807C398.032 861.663 403.631 854.906 407.01 850.365C404.463 848.962 402.191 847.445 400.872 844.751C399.03 840.989 399.89 837.084 401.144 833.295Z"/>
	<path fill="#151313" transform="matrix(0.858398 0 0 0.858398 -0.000244141 0)" d="M563.544 893.878C563.931 894.121 564.152 894.231 564.487 894.591C566.241 896.476 566.766 900.281 566.504 902.743C566.243 905.194 565.097 907.879 563.038 909.341C561.644 910.331 559.905 910.674 558.228 910.374C552.855 909.412 549.29 903.51 546.453 899.339C545.93 898.296 545.73 897.371 545.47 896.247L546.104 895.817C549.839 897.334 551.646 901.32 554.163 904.196C555.712 905.965 557.151 907.109 559.54 907.243C564.715 905.099 560.797 898.319 563.303 894.249C563.381 894.123 563.464 894.002 563.544 893.878Z"/>
	<path fill="#151313" transform="matrix(0.858398 0 0 0.858398 -0.000244141 0)" d="M592.101 737.185C592.428 737.279 592.763 737.349 593.082 737.468C595.831 738.494 597.997 742.628 599.202 745.153C602.442 751.938 607.112 764.42 604.499 771.8C603.678 771.887 604.13 771.949 603.208 771.348C600.792 766.519 600.991 760.751 599.375 755.677C597.644 750.245 591.853 742.688 592.101 737.185Z"/>
	<path fill="#151313" fill-opacity="0.97647059" transform="matrix(0.858398 0 0 0.858398 -0.000244141 0)" d="M599.327 913.578C599.956 919.811 599.323 935.366 595.159 939.965C594.151 941.078 593.383 941.211 591.951 941.449C589.201 940.686 587.633 938.961 586.19 936.54C583.67 932.314 581.726 924.952 583.175 920.136C583.225 919.97 583.303 919.815 583.367 919.655L583.88 920.421C583.826 920.718 583.764 921.015 583.718 921.313C583.351 923.67 584.193 926.001 584.015 928.35C583.815 930.998 587.837 937.336 589.65 939.322C590.086 939.8 590.55 940.135 591.078 940.502C592.467 940.226 593.045 939.742 594.117 938.878L594.126 938.254C592.567 938.295 591.436 938.668 590.205 937.52C589.758 937.104 589.373 936.424 589.02 935.926C588.424 935.086 588.829 935.632 588.015 934.709C586.254 932.714 584.997 929.115 584.822 926.512C584.804 926.246 584.779 925.98 584.76 925.714C584.669 924.468 584.63 923.433 584.883 922.208C584.952 921.874 585.007 921.538 585.074 921.204C585.303 920.047 585.205 920.464 585.541 919.368L586.203 919.479C585.991 921.324 585.896 923.382 586.024 925.241C586.289 929.062 587.38 933.969 590.428 936.524C591.6 936.758 592.135 936.998 593.126 936.085C597.115 932.413 596.696 919.787 596.481 914.837C598.189 914.7 598.182 914.826 599.327 913.578Z"/>
	<path fill="#151313" fill-opacity="0.98431373" transform="matrix(0.858398 0 0 0.858398 -0.000244141 0)" d="M525.356 849.577C526.54 850.076 527.475 850.55 528.213 851.638C530.562 855.098 530.737 860.076 529.758 864.012C528.8 867.867 526.516 871.3 523.059 873.33C517.371 876.67 511.27 875.061 505.347 873.478C503.921 872.76 503.35 872.128 502.708 870.671L503.075 869.973C506.554 868.868 512.866 871.716 516.42 872.748C519.393 871.849 522.093 870.914 524.118 868.407C528.161 863.399 525.967 855.435 525.356 849.577Z"/>
	<path fill="#151313" transform="matrix(0.858398 0 0 0.858398 -0.000244141 0)" d="M517.583 883.639C518.429 884.078 518.881 884.524 519.503 885.242C519.864 886.654 519.8 887.756 519.515 889.19C518.439 894.593 514.976 900.985 510.356 904.035C508.417 905.314 506.111 906.073 503.797 905.519C499.481 904.486 497.31 900.63 495.157 897.141C494.925 896.33 494.548 895.334 494.505 894.497C494.436 893.156 494.621 892.871 495.468 891.975C499.779 892.944 499.566 899.811 503.842 901.853C505.116 902.461 506.143 902.54 507.471 902.044C512.948 899.995 515.698 888.618 517.583 883.639Z"/>
	<path fill="#151313" fill-opacity="0.98823529" transform="matrix(0.858398 0 0 0.858398 -0.000244141 0)" d="M513.819 645.932C516.146 645.415 518.11 645.538 520.206 646.786C523.652 648.839 525.329 652.802 526.796 656.347C531.424 656.755 537.227 657.411 540.413 661.231C541.825 662.925 542.197 665.074 541.852 667.212C541.447 669.714 540.23 672.352 538.405 674.123L537.535 674.294C535.206 672.265 535.636 666.542 535.284 663.609C535.239 663.232 535.176 661.579 534.988 661.263C534.038 659.664 525.299 660.003 523.622 659.98C522.69 656.29 522.073 651.998 518.522 649.857C517.266 649.099 515.813 648.928 514.396 648.67C514.215 648.637 514.035 648.6 513.854 648.565L513.853 648.052C515.337 647.523 516.502 648.072 517.941 648.509C518.89 648.797 518.389 648.788 519.363 648.546L519.388 647.588C517.772 646.498 516.069 647.05 514.371 646.254C514.178 646.164 514.003 646.04 513.819 645.932Z"/>
	<defs>
		<linearGradient id="gradient_1" gradientUnits="userSpaceOnUse" x1="197.91638" y1="864.1012" x2="194.16441" y2="861.76105">
			<stop offset="0" stop-color="#10100F" stop-opacity="0.95686275"/>
			<stop offset="1" stop-color="#171415"/>
		</linearGradient>
	</defs>
	<path fill="url(#gradient_1)" transform="matrix(0.858398 0 0 0.858398 -0.000244141 0)" d="M206.032 841.813C207.646 840.651 209.48 840.107 211.337 839.458C205.747 848.639 200.172 857.83 195.306 867.424C193.264 871.45 191.875 876.033 189.668 879.901C188.899 881.249 188.149 882.144 186.925 883.09L185.796 883.16C185.073 882.024 185.066 881.2 185.372 879.886C186.642 874.438 202.006 846.094 206.032 841.813Z"/>
	<path fill="#151313" fill-opacity="0.98039216" transform="matrix(0.858398 0 0 0.858398 -0.000244141 0)" d="M812.45 823.182C812.653 823.024 812.86 822.868 813.061 822.706C813.933 822.004 813.611 822.308 814.319 821.414C814.307 821.58 814.293 821.745 814.282 821.911C814.166 823.752 814.34 825.023 814.938 826.776L814.912 827.698C814.77 832.064 814.09 836.415 813.939 840.798C813.459 854.673 813.956 869.888 815.957 883.664L814.334 882.356C813.16 885.326 814.935 888.522 813.535 891.764C812.523 887.014 812.572 881.668 812.221 876.817C811.018 860.209 808.807 839.539 812.45 823.182Z"/>
	<path fill="#151313" fill-opacity="0.97647059" transform="matrix(0.858398 0 0 0.858398 -0.000244141 0)" d="M848.24 667.472C848.45 667.528 848.654 667.62 848.87 667.64C850.173 667.76 850.877 666.684 851.745 665.879C849.301 678.313 844.649 690.337 841.443 702.596C838.859 712.478 837.733 721.986 837.218 732.142C836.577 730.648 836.308 729.675 836.301 728.051C836.294 726.649 836.253 725.249 836.226 723.847C835.309 724.732 835.326 726.369 835.092 727.619L834.215 727.913C835.604 706.86 842.783 687.644 848.24 667.472Z"/>
	<path fill="#151313" transform="matrix(0.858398 0 0 0.858398 -0.000244141 0)" d="M529.302 705.133C539.451 703.602 552.414 708.727 560.762 714.117C562.465 715.216 565 716.861 565.435 718.974L564.659 719.478C559.819 719.081 555.166 715.76 551.011 713.408C544.632 710.186 533.289 706.466 526.271 708.937C522.709 710.191 518.018 715.45 514.226 715.012L513.801 714.046C513.966 713.17 514.097 712.183 514.619 711.429C517.496 707.276 524.643 705.935 529.302 705.133Z"/>
	<path fill="#151313" fill-opacity="0.98431373" transform="matrix(0.858398 0 0 0.858398 -0.000244141 0)" d="M204.805 452.42L206.109 453.099C206.26 453.986 206.4 454.87 206.535 455.76C206.678 456.703 206.605 456.325 206.96 457.363L206.911 458.241C206.535 464.366 205.576 470.419 205.406 476.578C205.018 490.66 207.509 505.854 211.191 519.44C212.81 525.413 215.163 531.188 216.785 537.124L216.047 537.43C214.136 531.319 211.893 525.518 210.286 519.277C208.857 513.724 208.07 507.719 206.333 502.305C205.986 501.226 206.056 500.528 206.135 499.413C205.581 500.612 204.994 501.24 205.29 502.567C208.232 515.769 209.843 527.184 215.381 539.87L214.777 540.511C203.794 517.34 199.434 476.801 204.805 452.42Z"/>
	<path fill="#151313" fill-opacity="0.97254902" transform="matrix(0.858398 0 0 0.858398 -0.000244141 0)" d="M257.131 867.269C260.153 857.226 282.124 821.712 289.585 812.916C290.736 813.56 291.069 813.937 292.402 813.432C292.709 813.316 292.989 813.135 293.282 812.987C280.142 832.004 269.767 849.539 259.28 870.113C258.113 869.517 257.708 868.379 257.131 867.269Z"/>
	<path fill="#151313" fill-opacity="0.98823529" transform="matrix(0.858398 0 0 0.858398 -0.000244141 0)" d="M586.53 696.122C577.484 692.595 570.203 697.578 566.792 696.214C565.976 695.887 561.082 684.45 559.231 682.432C554.408 677.174 547.97 678.056 542.65 674.456C541.731 673.834 541.669 673.842 541.48 672.71C541.988 672.295 542.4 672.07 543.056 671.966C548.256 671.143 554.011 673.769 558.155 676.761C563.376 680.53 567.605 686.061 568.613 692.526C568.642 692.71 568.666 692.895 568.693 693.079C570.736 692.29 572.869 691.591 575.011 691.117C579.183 690.194 582.976 690.304 586.642 692.619C586.761 692.861 586.876 693.105 587.001 693.344C588.236 695.721 590.876 697.213 591.936 699.647L591.373 699.672C590.001 698.234 588.751 696.62 586.87 695.871L586.53 696.122Z"/>
	<path fill="#151313" fill-opacity="0.96470588" transform="matrix(0.858398 0 0 0.858398 -0.000244141 0)" d="M830.214 758.437C830.697 758.608 830.428 758.538 831.135 758.608C832.164 758.71 833.131 757.51 833.928 756.858C832.2 764.657 830.415 772.492 828.069 780.131C825.429 788.727 822.272 797.153 819.792 805.802C817.797 812.757 816.652 819.778 814.938 826.776C814.34 825.023 814.166 823.752 814.282 821.911C814.293 821.745 814.307 821.58 814.319 821.414C813.611 822.308 813.933 822.004 813.061 822.706C812.86 822.868 812.653 823.024 812.45 823.182C814.42 807.77 820.413 792.735 825.065 777.987C827.093 771.558 828.646 764.99 830.214 758.437Z"/>
	<path fill="#151313" transform="matrix(0.858398 0 0 0.858398 -0.000244141 0)" d="M615.775 739.042C620.822 746.99 626.196 761.858 623.816 771.366C623.553 772.417 622.919 773.463 621.964 774.024C620.909 774.645 620.049 774.494 618.974 774.01C614.256 771.883 610.023 756.247 608.222 751.076C607.734 749.675 606.823 748.186 606.476 746.792C606.308 746.119 606.343 745.934 606.355 745.323L607.055 744.9C609.863 745.922 611.197 748.779 612.384 751.345C615.487 758.054 616.83 765.417 620.086 772.088L620.417 772.782C620.484 772.921 620.553 773.058 620.622 773.195C620.488 761.657 619.159 752.346 613.806 741.929L614.299 739.867L615.775 739.042Z"/>
	<path fill="#151313" fill-opacity="0.97647059" transform="matrix(0.858398 0 0 0.858398 -0.000244141 0)" d="M206.032 841.813C217.496 821.201 239.048 797.419 255.358 780.343C256.108 781.138 256.824 781.845 257.693 782.51C247.241 793.969 236.492 805.31 226.969 817.563Q221.369 824.83 216.203 832.412C214.683 834.605 213.151 837.558 211.337 839.458C209.48 840.107 207.646 840.651 206.032 841.813Z"/>
	<path fill="#151313" fill-opacity="0.97647059" transform="matrix(0.858398 0 0 0.858398 -0.000244141 0)" d="M208.516 613.219C208.755 613.161 208.994 613.106 209.232 613.045C209.997 612.848 210.682 612.609 211.412 612.316L211.836 613.358Q207.676 624.444 204.752 635.918Q201.828 647.392 200.174 659.117Q207.56 670.925 215.249 682.539L213.325 682.902C213.195 684.177 213.757 685.166 213.807 686.46Q205.362 673.329 196.765 660.296C197.796 645.902 203.26 626.674 208.516 613.219Z"/>
	<path fill="#151313" fill-opacity="0.98823529" transform="matrix(0.858398 0 0 0.858398 -0.000244141 0)" d="M559.405 407.581C582.25 402.929 606.721 392.538 630.365 392.931C633.871 393.935 637.276 394.897 640.93 395.163L641.365 395.532C633.265 395.949 625.067 396.172 617.033 397.33C597.749 400.108 579.248 406.178 560.329 410.629C560.262 409.297 560.185 408.677 559.405 407.581Z"/>
	<defs>
		<linearGradient id="gradient_2" gradientUnits="userSpaceOnUse" x1="333.69324" y1="841.39215" x2="327.10471" y2="837.71613">
			<stop offset="0" stop-color="black" stop-opacity="0.94509804"/>
			<stop offset="1" stop-color="#1E1B1C"/>
		</linearGradient>
	</defs>
	<path fill="url(#gradient_2)" transform="matrix(0.858398 0 0 0.858398 -0.000244141 0)" d="M318.662 858.811C320.986 849.956 340.313 808.219 346.945 803.814C347.604 803.377 347.462 803.548 348.365 803.724C348.904 804.791 349.209 805.111 348.782 806.328C347.488 810.015 341.114 819.093 338.709 823.771C334.062 832.812 329.126 841.778 325.1 851.114C321.295 859.935 318.413 868.959 315.48 878.093L314.9 877.837C313.188 874.087 318.408 863.516 318.662 858.811Z"/>
	<defs>
		<linearGradient id="gradient_3" gradientUnits="userSpaceOnUse" x1="796.48706" y1="467.64667" x2="804.05719" y2="460.92633">
			<stop offset="0" stop-color="black" stop-opacity="0.94901961"/>
			<stop offset="1" stop-color="black"/>
		</linearGradient>
	</defs>
	<path fill="url(#gradient_3)" transform="matrix(0.858398 0 0 0.858398 -0.000244141 0)" d="M770.813 436.162C798.285 452.338 821.764 473.779 835.651 502.969C833.922 503.998 834.146 504.338 833.665 506.216C817.797 475.992 799.809 457.639 770.658 440.137L770.813 436.162Z"/>
	<path fill="#151313" fill-opacity="0.98823529" transform="matrix(0.858398 0 0 0.858398 -0.000244141 0)" d="M409.277 866.201C409.859 866.48 410.212 866.837 410.685 867.267C411.268 870.348 409.496 873.709 409.23 876.822C408.703 883 412.634 891.122 409.242 896.904C408.672 897.876 408.269 898.277 407.146 898.505C406.295 896.051 407.571 890.602 407.578 887.687C405.492 889.715 403.074 891.932 402.35 894.862C401.348 898.915 403.881 902.236 405.921 905.471C404.964 911.793 398.739 923.818 400.514 929.527C400.894 930.748 401.12 930.82 402.187 931.337C403.736 931.259 404.517 930.693 405.748 929.854C406.891 928.88 407.522 928.016 409.03 927.806L409.268 928.787C408.557 931.451 406.578 933.826 404.143 935.151C402.947 935.802 401.369 936.355 400.049 935.712C398.849 935.127 398.071 933.682 397.603 932.495C394.179 923.81 399.612 913.88 402.985 905.973C402.926 905.907 402.868 905.84 402.808 905.775C401.985 904.87 401.122 903.967 400.409 902.971C398.812 900.745 398.264 897.622 398.727 894.952C399.526 890.351 402.925 887.137 406.518 884.516Q405.87 878.964 405.087 873.43C406.318 870.805 407.508 868.519 409.277 866.201Z"/>
	<path fill="#151313" fill-opacity="0.97647059" transform="matrix(0.858398 0 0 0.858398 -0.000244141 0)" d="M316.043 810.227C316.606 810.662 317.268 810.865 317.304 811.641C317.426 814.287 307.841 830.135 306.07 833.579C301.167 843.111 297.343 853.404 293.987 863.58C291.546 870.983 287.429 891.966 283.825 896.734C283.426 896.439 283.103 896.297 282.88 895.86C282.079 894.293 282.621 891.339 282.885 889.633C286.061 869.092 298.684 837.964 309.23 819.779C311.008 816.713 313.158 812.347 316.043 810.227Z"/>
	<path fill="#151313" transform="matrix(0.858398 0 0 0.858398 -0.000244141 0)" d="M534.478 803.889C535.732 804.676 536.567 804.922 537.987 805.191C535.047 808.013 531.358 810.021 528.414 812.85C522.445 818.587 523.418 823.23 513.498 828.591C508.471 831.308 502.496 832.534 496.958 830.7C490.918 828.7 487.464 823.943 484.695 818.539C483.744 820.236 482.785 821.949 481.523 823.44Q481.043 824.001 480.511 824.512Q479.978 825.023 479.397 825.479Q478.817 825.935 478.194 826.331Q477.571 826.728 476.913 827.061Q476.254 827.394 475.565 827.66Q474.877 827.926 474.165 828.123Q473.454 828.321 472.727 828.447Q471.999 828.573 471.263 828.626C465.749 829.06 459.642 827.116 455.51 823.451C452.869 821.108 449.161 816.649 449.44 812.864C449.536 811.563 449.69 811.339 450.622 810.575C452.299 810.823 455.921 818.783 457.967 820.696C461.123 823.644 466.26 825.245 470.56 825.064C479.759 824.674 477.755 817.385 481.821 813.486C482.362 812.967 482.681 813.126 483.365 813.116C487.32 815.15 489.915 819.899 492.604 823.358C494.718 826.076 497.468 828.129 500.995 828.424C512.691 829.403 519.413 817.8 526.342 810.577C528.707 808.11 531.822 806.062 534.478 803.889Z"/>
	<defs>
		<linearGradient id="gradient_4" gradientUnits="userSpaceOnUse" x1="704.01526" y1="416.95807" x2="710.51587" y2="397.35031">
			<stop offset="0" stop-color="black" stop-opacity="0.97254902"/>
			<stop offset="1" stop-color="#221F20"/>
		</linearGradient>
	</defs>
	<path fill="url(#gradient_4)" transform="matrix(0.858398 0 0 0.858398 -0.000244141 0)" d="M630.365 392.931C660.362 390.544 690.101 396.233 718.253 406.249C717.835 405.341 717.393 404.457 716.924 403.573C716.861 402.837 716.772 402.202 716.576 401.484C716.519 401.272 716.453 401.061 716.391 400.85L717.049 399.909L716.49 400.656L717.827 400.075L717.521 399.896C718.008 400.688 718.483 401.385 719.098 402.083L720.109 402.134C733.377 417.75 753.111 426.485 770.813 436.162L770.658 440.137C761.991 435.024 753.014 430.453 744.315 425.395C736.827 421.042 729.654 416.036 721.968 412.045C707.448 404.504 689.99 400.261 673.804 398.043C662.983 396.561 652.194 396.56 641.365 395.532L640.93 395.163C637.276 394.897 633.871 393.935 630.365 392.931Z"/>
	<path fill="#151313" fill-opacity="0.98823529" transform="matrix(0.858398 0 0 0.858398 -0.000244141 0)" d="M835.651 502.969C855.606 542.785 860.89 595.347 856.262 639.171C855.359 647.724 854.506 657.054 851.944 665.3C851.883 665.495 851.811 665.686 851.745 665.879C850.877 666.684 850.173 667.76 848.87 667.64C848.654 667.62 848.45 667.528 848.24 667.472Q848.799 664.963 849.31 662.443Q849.821 659.924 850.282 657.395Q850.744 654.866 851.157 652.328Q851.57 649.791 851.934 647.246Q852.297 644.701 852.612 642.149Q852.926 639.598 853.191 637.041Q853.456 634.484 853.672 631.922Q853.887 629.36 854.053 626.795Q854.219 624.229 854.335 621.661Q854.452 619.093 854.518 616.523Q854.585 613.953 854.602 611.382Q854.618 608.812 854.586 606.241Q854.553 603.67 854.47 601.101Q854.388 598.531 854.255 595.964Q854.123 593.397 853.941 590.832Q853.76 588.268 853.528 585.707Q853.297 583.147 853.016 580.592Q852.735 578.036 852.405 575.487Q852.074 572.937 851.695 570.395Q851.315 567.852 850.887 565.317Q850.458 562.782 849.981 560.256Q849.503 557.73 848.977 555.214Q848.451 552.698 847.876 550.192Q847.301 547.686 846.677 545.192Q846.054 542.698 845.383 540.216Q844.712 537.735 843.992 535.266Q843.273 532.798 842.506 530.344Q841.74 527.891 840.925 525.452Q840.111 523.014 839.25 520.591Q838.389 518.169 837.481 515.764Q836.574 513.359 835.619 510.972Q834.665 508.584 833.665 506.216C834.146 504.338 833.922 503.998 835.651 502.969Z"/>
	<path fill="#151313" transform="matrix(0.858398 0 0 0.858398 -0.000244141 0)" d="M570.017 874.029C569.936 873.88 569.853 873.731 569.773 873.581C566.236 866.903 567.828 858.55 571.2 852.1C572.649 849.327 574.69 846.403 575.526 843.371C577.76 835.265 561.971 836.221 558.561 830.113C556.788 826.939 557.878 822.503 558.912 819.234C559.485 817.423 560.028 815.267 561.83 814.342L562.498 814.843C563.238 817.854 561.995 821.916 561.884 825.047C561.533 834.937 572.418 830.597 577.114 836.15C580.47 840.12 579.453 846.133 578.884 850.862L580.639 854.016C581.739 855.651 582.904 856.978 582.829 859.031L582.262 860.007C581.101 860.009 580.396 859.852 579.546 858.975C578.686 858.087 578.069 856.609 577.591 855.497C576.883 853.857 576.282 852.182 575.672 850.503C573.391 854.952 571.101 860.572 571.041 865.623C571.015 867.765 571.638 869.911 573.274 871.375C577.316 874.991 584.28 873.954 589.282 873.721C586.858 876.191 582.665 879.545 582.978 883.425C583.299 887.4 589.346 890.885 592.314 893.091C593.806 890.1 595.205 886.915 595.877 883.623C597.091 877.671 591.346 875.605 588.534 871.363C588.421 871.193 588.317 871.016 588.205 870.845C587.085 869.136 587.799 862.522 586.516 858.433C588.088 854.544 589.906 850.069 591.933 846.406C593.098 845.376 592.14 844.926 592.877 844.159L593.614 845.696L595.363 845.849C594.778 851.252 591.631 855.038 590.134 860.077C592.007 867.95 597.499 873.71 599.087 880.935C600.412 886.961 595.785 891.158 595.44 896.766C595.099 902.305 598.849 907.886 599.327 913.578C598.182 914.826 598.189 914.7 596.481 914.837C595.789 911.181 594.94 908.172 592.935 904.972C589.841 909.725 587.542 913.944 586.203 919.479L585.541 919.368C585.205 920.464 585.303 920.047 585.074 921.204C585.007 921.538 584.952 921.874 584.883 922.208C584.63 923.433 584.669 924.468 584.76 925.714C584.779 925.98 584.804 926.246 584.822 926.512C584.997 929.115 586.254 932.714 588.015 934.709C588.829 935.632 588.424 935.086 589.02 935.926C589.373 936.424 589.758 937.104 590.205 937.52C591.436 938.668 592.567 938.295 594.126 938.254L594.117 938.878C593.045 939.742 592.467 940.226 591.078 940.502C590.55 940.135 590.086 939.8 589.65 939.322C587.837 937.336 583.815 930.998 584.015 928.35C584.193 926.001 583.351 923.67 583.718 921.313C583.764 921.015 583.826 920.718 583.88 920.421L583.367 919.655C583.902 911.329 590.79 904.566 590.523 899.092C590.312 894.749 584.894 892.494 582.218 889.71C578.69 886.039 578.802 883.138 578.96 878.362C575.867 877.078 572.827 875.878 570.017 874.029Z"/>
	<path fill="#151313" fill-opacity="0.98823529" transform="matrix(0.858398 0 0 0.858398 -0.000244141 0)" d="M664.718 402.236C668.909 404.413 671.163 412.459 672.683 416.692C713.345 529.947 724.802 654.211 715.291 773.759C714.377 785.249 712.294 821.248 708.245 829.844C707.615 829.544 707.432 829.089 707.031 828.532C706.083 822.991 707.902 817.206 708.546 811.685Q709.645 801.392 710.557 791.081Q713.156 765.044 714.258 738.9Q714.936 724.526 715.159 710.139Q715.383 695.751 715.153 681.363Q714.923 666.975 714.239 652.602Q713.555 638.229 712.418 623.884Q711.281 609.54 709.692 595.238Q708.103 580.937 706.063 566.692Q704.024 552.448 701.536 538.275Q699.049 524.102 696.115 510.015Q689.989 481.337 681.474 453.276Q676.413 437.226 670.514 421.464C668.565 416.286 665.66 410.678 664.347 405.372C664.005 403.99 664.255 403.543 664.718 402.236Z"/>
	<path fill="#151313" transform="matrix(0.858398 0 0 0.858398 -0.000244141 0)" d="M565.949 160.617C568.209 156.263 570.742 152.291 575.365 150.192C577.759 149.105 580.407 148.701 583.013 148.526C593.068 147.849 603.31 149.019 613.405 148.666C625.088 148.257 635.469 145.651 647.411 146.577Q650.696 146.851 653.956 147.344Q657.216 147.838 660.435 148.549Q663.654 149.26 666.818 150.186Q669.982 151.112 673.077 152.248C690.617 158.55 702.438 167.172 710.383 184.178Q713.453 186.092 716.454 188.111C731.315 198.232 735.851 213.886 738.889 230.864C739.205 232.632 739.619 234.655 738.54 236.228L737.55 236.393C735.39 234.68 734.91 230.825 734.259 228.277C731.533 217.606 728.561 202.29 719.954 194.697C717.648 192.663 714.653 191.124 712.01 189.557C713.719 199.838 713.239 209.168 712.877 219.502C712.451 231.67 712.396 241.042 708.9 252.841C711.448 259.168 715.906 264.576 717.169 271.428C719.727 285.302 711.248 308.685 704.934 321.202C702.261 326.502 698.838 331.43 695.548 336.361C695.469 340.613 695.661 344.71 696.144 348.936C700.907 339.423 705.033 329.659 709.335 319.932C716.251 304.294 722.785 289.533 726.51 272.761C723.108 269.638 719.391 266.517 716.816 262.647C708.713 250.467 722.052 236.101 721.761 222.919C721.626 216.844 717.27 211.17 715.997 205.203L715.858 204.519C721.316 208.86 726.097 214.913 729.596 220.916C737.121 233.83 737.799 250.688 733.916 264.844C731.947 272.022 728.918 278.87 727.067 286.099L726.842 286.995C729.329 289.474 731.025 291.717 732.234 295.045C735.964 305.316 732.367 318.258 727.812 327.688C720.991 341.809 710.999 353.005 695.971 358.154Q694.681 362.551 693.118 366.859C705.394 375.551 711.643 390.063 720.109 402.134L719.098 402.083C718.483 401.385 718.008 400.688 717.521 399.896L717.827 400.075L716.49 400.656L717.049 399.909L716.391 400.85C716.453 401.061 716.519 401.272 716.576 401.484C716.772 402.202 716.861 402.837 716.924 403.573C717.393 404.457 717.835 405.341 718.253 406.249C690.101 396.233 660.362 390.544 630.365 392.931C606.721 392.538 582.25 402.929 559.405 407.581C560.185 408.677 560.262 409.297 560.329 410.629C533.219 416.539 507.263 426.638 480.757 434.696C461.771 440.468 440.99 444.5 422.85 452.23C430.609 473.285 433.757 492.36 433.484 514.697C433.362 524.744 432.806 534.783 433.333 544.827C434.852 573.719 441.98 601.713 448.878 629.699C451.608 640.776 453.968 653.591 458.965 663.845C464.349 659.736 469.929 655.298 474.255 650.049C476.012 647.918 477.372 644.663 479.285 642.873C480.049 642.157 480.475 642.169 481.456 642.08C482.476 642.836 482.73 643.352 482.943 644.622C483.416 647.442 482.475 650.961 482.005 653.751C487.815 652.171 493.846 651.851 499.636 650.289C503.932 649.131 509.475 645.984 513.819 645.932C514.003 646.04 514.178 646.164 514.371 646.254C516.069 647.05 517.772 646.498 519.388 647.588L519.363 648.546C518.389 648.788 518.89 648.797 517.941 648.509C516.502 648.072 515.337 647.523 513.853 648.052L513.854 648.565C509.468 651.134 504.505 653.847 499.713 655.505C499.519 655.572 499.329 655.65 499.133 655.712C494.304 657.249 487.601 652.239 482.705 658.292L482.537 659.023C481.505 659.884 480.789 659.868 479.5 659.995C479.164 656.935 478.825 653.918 478.825 650.834C472.861 657.066 466.083 665.649 458.556 669.973C457.284 668.596 455.952 667.247 454.787 665.777C443.962 672.394 446.221 678.453 441.87 688.382C437.578 687.295 434.247 686.264 430.114 688.63C423.456 692.441 420.348 703.191 417.977 709.977C413.789 713.214 409.465 716.361 406.022 720.42C395.305 733.054 389.774 753.958 387.696 770.245C386.619 778.685 388.224 785.716 393.461 792.488C396.013 795.79 398.897 798.882 401.688 801.983C398.035 792.275 397.079 781.808 401.492 772.18C402.061 770.94 402.449 770.021 403.533 769.138C404.597 770.391 404.669 772.315 404.534 773.932C404.272 777.055 403.03 780.057 402.541 783.152C401.243 791.369 403.449 800.184 408.648 806.685C412.872 811.968 418.789 815.747 425.055 818.164C420.136 808.511 416.45 798.933 415.458 788.064C415.311 786.454 414.901 784.086 415.334 782.52C415.704 781.181 416.251 780.317 417.483 779.655C419.714 782.385 419.117 789.257 419.585 792.842C420.414 799.182 422.865 804.276 425.201 810.076C426.144 812.418 426.945 815.881 429.34 817.036C430.328 815.815 430.049 813.837 429.887 812.38C429.134 805.589 425.837 796.761 428.037 790.171L428.731 789.927C431.936 794.086 432.562 806.903 434.828 812.89C436.087 807.183 438.184 801.052 438.483 795.255C438.798 789.16 437.58 783.103 438.549 777.033C439.69 769.896 443.568 763.404 444.531 756.216C446.259 743.308 440.231 732.221 447.118 719.745Q447.964 718.248 448.984 716.865Q450.003 715.481 451.182 714.23Q452.362 712.979 453.683 711.879Q455.004 710.78 456.448 709.847C460.347 707.322 467.601 703.823 472.264 704.661C473.465 704.877 474.455 705.292 475.342 706.144C475.099 707.088 475.359 706.817 474.529 707.277C471.961 708.7 468.361 708.569 465.507 709.162C457.668 710.791 450.719 719.286 448.276 726.636C445.39 735.321 449.043 743.965 448.517 752.787C448.009 761.315 443.93 768.786 442.505 777.049C441.275 784.184 442.665 791.681 442.54 798.888C443.936 797.145 445.296 795.369 446.834 793.747C443.215 785.983 443.829 775.588 446.767 767.693C450.234 758.378 457.091 750.564 463.791 743.4C463.377 737.713 462.856 730.624 466.917 726.009C468.031 724.742 469.477 723.875 471.202 723.851C472.643 723.831 473.99 724.627 474.867 725.735C476.501 727.801 476.676 730.677 476.215 733.175C473.668 746.996 449.441 753.995 447.491 779.263C447.099 784.333 447.998 789.713 450.726 794.07C453.005 797.708 456.51 800.341 460.736 801.23C465.914 802.32 471.133 800.657 475.369 797.661C479.971 794.406 483.24 789.947 486.159 785.201C481.266 780.893 475.613 776.57 475.276 769.49C475.052 764.784 477.224 760.306 480.498 757.021C484.353 753.15 489.167 751.073 494.644 751.177C501.319 751.303 508.367 754.463 512.928 759.365C515.274 761.887 516.866 764.967 516.571 768.488C516.057 774.63 510.273 780.482 506.36 784.891C513.047 791.11 520.048 796.813 529.76 796.644C535.276 796.548 540.492 794.414 544.296 790.381C547.645 786.829 549.373 782.459 550.958 777.942C547.444 763.96 540.168 756.219 529.268 747.264C525.97 744.555 522.442 742.003 519.986 738.458C518.977 736.677 518.157 734.586 517.779 732.575C517.082 728.858 517.907 726.149 519.931 723.053C521.549 721.786 523.049 720.491 525.242 720.694C526.047 720.768 526.706 721.187 527.241 721.798C530.333 725.327 528.512 734.783 527.983 739.231C534.443 746.899 541.992 753.627 548.332 761.387C548.725 757.188 551.511 741.262 554.182 738.743C554.311 738.621 554.47 738.536 554.613 738.432C555.566 739.057 555.527 739.223 555.735 740.312C557 746.919 552.846 758.141 550.269 764.336C551.43 767.166 552.594 769.889 554.103 772.557C554.557 768.864 553.962 761.838 556.287 759.026C556.918 759.148 557.394 759.075 557.82 759.618C559.328 761.544 558.48 765.527 558.023 767.79C556.633 774.67 553.485 780.985 551.584 787.707C553.847 795.569 557.556 801.025 563.939 806.081C563.999 803.266 563.627 798.856 565.598 796.648C566.7 796.966 566.355 796.646 566.882 797.645C568.676 801.044 568.379 805.053 568.348 808.788L571.458 813.326C574.43 803.916 577.325 795.226 577.979 785.297C578.289 780.6 576.455 773.337 578.791 769.285L579.699 769.235C584.719 777.983 580.704 794.525 578.217 803.61C577.205 807.303 576.083 810.959 575.097 814.664C577.713 815.52 580.511 816.744 583.173 815.385C586.156 813.863 587.528 810.683 588.394 807.626C590.377 800.627 591.019 793.171 590.83 785.922Q590.58 777.313 589.242 768.805C588.598 764.938 587.592 760.96 587.24 757.066C587.114 755.679 587.127 755.017 587.753 753.796C588.755 753.983 588.872 754.081 589.441 754.914C593.405 760.723 594.528 783.961 594.217 791.548Q593.899 798.258 592.36 804.797C591.285 809.27 589.259 814.015 587.162 818.108C589.273 817.886 591.372 817.711 593.442 817.225C607.461 801.855 601.924 783.325 605.365 779.402C606.414 779.758 606.088 779.445 606.618 780.435C609.351 785.538 606.655 799.223 605.431 804.681C608.861 799.997 612.566 795.222 615.186 790.029C616.622 787.18 618.559 779.221 621.213 778.047C622.01 779.017 622.088 779.703 622.016 780.963C621.409 791.648 610.925 802.889 604.316 810.507C601.919 813.27 599.47 816.574 596.589 818.83C594.805 820.227 593.077 820.801 590.874 821.169C589.706 823.726 588.605 826.215 587.756 828.9C586.765 828.508 585.605 828.302 584.57 828.024C585.352 825.318 586.301 822.638 587.176 819.959C583.591 821.93 578.356 826.16 574.034 825.157C567.807 823.71 571.388 819.251 570.424 816.639C570.162 815.927 567.952 814.155 567.34 813.443C565.993 811.876 564.89 810.143 563.843 808.367C562.492 808.271 560.901 808.269 559.684 807.615C554.071 804.6 549.998 797.198 548.457 791.216Q545.617 793.792 542.642 796.209C541.513 796.259 540.593 796.379 539.509 796.699C539.001 797.413 538.486 798.12 538.002 798.85C528.879 800.562 522.089 799.776 513.75 795.797C505.825 801.296 496.973 804.41 487.248 802.653C484.67 802.187 482.037 801.339 479.664 800.231C472.769 802.98 464.755 807.053 457.311 804.065C453.473 802.525 450.971 799.814 448.276 796.824C446.233 799.863 443.866 803.024 442.44 806.406C439.938 812.34 440.832 818.379 433.262 819.995C429.603 820.777 425.791 820.55 422.084 820.964C420.384 824.011 419.024 826.951 418.329 830.393C417.567 834.167 418.653 843.936 416.131 846.413C415.138 846.212 415.28 846.461 414.822 845.67C412.145 841.05 414.029 832.187 415.622 827.369C416.469 824.809 417.512 822.368 418.643 819.924L414.503 817.746C410.171 823.069 407.023 828.587 404.143 834.8C403.362 834.784 403.84 834.772 402.712 834.91C402.983 835.726 402.992 835.975 402.76 836.827C400.679 844.459 406.41 844.532 409.009 850.084L408.461 850.66L407.689 849.854L408.009 850.562C405.882 846.95 400.44 845.27 400.521 840.59C400.556 838.555 401.858 835.672 401.366 833.817C401.317 833.634 401.218 833.469 401.144 833.295C402.392 827.177 407.662 820.491 411.088 815.32C407.135 811.56 405.53 806.275 401.897 802.66C401.242 802.009 400.75 802.055 399.861 802.036C398.553 802.009 399.159 802.11 397.866 801.862C395.053 801.322 390.308 795.024 388.715 792.585C383.761 785.001 382.731 775.568 384.629 766.819C357.267 786.017 331.202 799.19 298.128 805.954L293.282 812.987C292.989 813.135 292.709 813.316 292.402 813.432C291.069 813.937 290.736 813.56 289.585 812.916L293.765 805.843C287.778 802.368 283.205 798.229 278.562 793.116C273.854 789.584 268.026 780.55 264.524 775.56C262.173 777.785 259.956 780.192 257.693 782.51C256.824 781.845 256.108 781.138 255.358 780.343C257.718 777.595 260.27 775.008 262.773 772.39C249.142 751.743 238.373 729.984 226.628 708.32C222.602 700.894 217.944 693.824 213.807 686.46C213.757 685.166 213.195 684.177 213.325 682.902L215.249 682.539Q207.56 670.925 200.174 659.117Q201.828 647.392 204.752 635.918Q207.676 624.444 211.836 613.358Q213.482 609.69 215.086 606.003C214.982 606.025 214.874 606.034 214.774 606.071C213.796 606.432 213.391 607.579 212.95 608.435L212.712 608.906L212.928 607.415L212.62 607.147C212.736 605.897 212.96 604.671 213.166 603.434C214.989 598.221 219.41 592.961 222.52 588.423C220.864 578.319 221.876 567.978 220.227 557.98C219.23 551.941 216.886 546.227 214.777 540.511L215.381 539.87C209.843 527.184 208.232 515.769 205.29 502.567C204.994 501.24 205.581 500.612 206.135 499.413C206.056 500.528 205.986 501.226 206.333 502.305C208.07 507.719 208.857 513.724 210.286 519.277C211.893 525.518 214.136 531.319 216.047 537.43L216.785 537.124C215.163 531.188 212.81 525.413 211.191 519.44C207.509 505.854 205.018 490.66 205.406 476.578C205.576 470.419 206.535 464.366 206.911 458.241L206.96 457.363C206.605 456.325 206.678 456.703 206.535 455.76C206.4 454.87 206.26 453.986 206.109 453.099L204.805 452.42C205.263 449.009 206.412 445.419 207.504 442.16C211.184 431.183 218.626 415.313 229.62 409.878C234.069 404.287 247.711 402.551 254.434 401.694C250.591 388.114 262.222 383.458 263.011 380.468C261.857 380.727 260.571 380.996 259.387 380.91C256.552 380.703 253.011 378.995 251.118 376.868C249.327 374.856 248.771 372.315 248.978 369.675C249.472 363.392 253.17 359.53 257.722 355.731C251.803 357.129 247.064 360.425 242.272 364.025C244.521 368.037 245.52 372.656 247.775 376.636C249.313 379.349 253.326 382.923 253.719 385.833C252.665 386.49 252.183 386.633 250.941 386.595C249.504 385.876 249.069 384.882 248.356 383.521C246.854 380.652 244.872 378.372 243.113 375.692C240.907 372.334 238.799 368.17 239.783 364.046C240.884 359.433 245.047 357.059 248.806 354.795C245.304 352.535 242.147 350.037 240.612 345.998C239.562 343.237 239.61 340.221 240.991 337.585C243.335 333.111 248.535 330.935 253.148 329.607C268.272 325.25 269.382 337.189 280.095 342.952C280.306 343.066 280.52 343.175 280.733 343.287C278.307 339.534 273.578 335.611 272.182 331.408C270.998 327.844 272.237 323.509 270.903 319.856C270.379 318.423 269.675 317.862 268.346 317.209C267.742 317.182 267.244 317.227 266.674 317.451C261.647 319.434 261.64 322.571 259.757 326.879C258.632 326.162 257.659 325.474 257.078 324.198C256.495 322.916 256.678 321.419 257.194 320.149C259.359 314.819 263.765 316.769 267.612 314.842C269.872 313.709 264.549 303.892 266.648 298.995C268.37 294.978 275.797 294.966 279.309 293.227C280.498 292.638 280.798 292.153 281.141 290.924C279.365 284.996 269.031 279.835 265.921 273.678C265.362 272.572 265.139 271.522 265.556 270.331L266.495 270.09C270.731 271.6 283.213 284.777 287.439 288.648C290.622 281.892 293.476 279.463 300.412 276.808C299.176 273.489 298.896 269.253 300.112 265.894C302.933 258.103 316.978 256.72 324.443 253.004C324.567 249.543 324.859 246.302 325.941 242.985C331.23 226.777 348.706 214.239 363.234 206.923Q368.7 204.104 374.481 202.006Q380.262 199.908 386.264 198.564C410.392 193.306 458.165 192.897 481.433 200.664C484.886 201.816 487.967 203.223 490.905 205.393C500.887 212.767 520.334 236.415 525.857 247.717L526.275 248.585C527.586 251.274 527.022 253.855 527.518 256.706C528.415 261.862 530.334 266.747 531.037 271.995C531.653 276.601 531.449 281.34 531.652 285.979C531.864 290.817 532.358 295.664 532.76 300.49C535.749 291.631 542.679 268.958 542.446 260.302C542.334 256.159 539.908 252.343 539.817 248.167C539.734 244.369 541.515 241.718 544.06 239.075C542.523 229.244 542.844 220.395 544.91 210.658C542.814 208.709 541.679 207.166 541.238 204.266C539.991 196.046 543.226 183.761 548.332 177.2C549.821 175.287 550.966 174.162 553.466 173.875C554.663 174.466 554.57 174.45 555.034 175.714C553.649 179.803 550.139 182.995 548.363 186.943C545.952 192.306 543.244 200.284 545.526 205.988L546.21 206.063C549.853 201.13 550.4 190.768 552.633 184.644C555.181 177.658 558.782 171.888 562.692 165.608C558.783 166.891 554.838 168.06 551.52 170.604C546.57 174.399 544.259 183.701 538.153 185.422L537.501 184.861C537.458 182.965 538.207 181.095 539.028 179.408C543.948 169.3 555.864 163.773 565.949 160.617ZM295.99 680.106C290.758 686.2 285.315 692.321 281.596 699.497C273.554 715.013 272.939 737.829 278.276 754.255C279.752 758.796 282.532 762.773 284.19 767.204C284.654 768.442 284.967 769.683 284.534 770.97L283.563 771.04C280.731 769.293 279.014 765.2 277.456 762.366C271.754 752 270.844 735.474 271.631 723.948C272.829 706.416 279.14 691.338 292.467 679.68C290.224 678.704 287.975 677.696 285.583 677.143C278.894 675.597 271.984 677.309 266.311 681.035C255.445 688.173 253.124 696.604 250.539 708.515C250.186 710.142 249.826 711.7 248.352 712.646L247.193 712.33C244.537 709.611 242.751 705.462 241.976 701.777C240.388 694.225 243.187 686.672 247.403 680.482C251.441 674.555 259.678 665.945 267.076 664.771C268.534 664.539 269.642 664.483 270.856 665.351C270.662 666.335 270.677 666.637 269.852 667.295C268.058 668.726 265.487 669.654 263.468 670.788Q262.284 671.465 261.151 672.223Q260.017 672.98 258.938 673.814Q257.859 674.648 256.84 675.554Q255.822 676.461 254.868 677.435Q253.915 678.41 253.031 679.448Q252.147 680.487 251.337 681.584Q250.527 682.68 249.794 683.831Q249.062 684.981 248.411 686.179C244.735 693.012 244.725 698.765 246.868 705.989C248.822 697.545 251.946 689.479 258.013 683.122C264.821 675.989 272.845 673.339 282.516 673.058L279.363 668.975L281.843 667.01C263.124 645.598 253.431 617.743 240.37 592.93C240.36 593.245 240.347 593.559 240.342 593.874C240.314 595.367 240.601 596.807 240.866 598.268C239.491 597.105 238.822 595.482 237.331 594.39C234.763 589.676 232.815 584.687 231.179 579.582C231.063 583.291 231.561 588.834 229.456 591.965L228.529 592.216L226.69 591.115C223.238 592.25 217.03 602.614 215.086 606.003Q213.482 609.69 211.836 613.358Q207.676 624.444 204.752 635.918Q201.828 647.392 200.174 659.117Q207.56 670.925 215.249 682.539C233.916 712.553 248.269 744.978 268.15 774.264C272.246 780.297 277.207 785.247 281.578 790.978L292.094 800.222C300.763 797.435 308.442 793.386 316.522 789.296C361.135 757.461 392.235 711.268 426.385 669.257C433.864 659.47 440.596 649.19 447.892 639.276C445.379 630.941 443.529 622.265 441.494 613.795C436.672 593.733 432.303 573.756 430.42 553.17C427.008 515.861 435.53 491.104 418.903 453.543C401.009 467.412 406.764 503.916 399.571 524.243C396.082 534.101 389.819 542.514 384.616 551.499C379.389 560.526 374.703 569.919 370.255 579.35Q363.883 592.842 358.392 606.716C352.517 621.863 347.281 637.451 339.879 651.944C335.986 659.567 331.494 667.092 325.521 673.285C317.553 681.547 312.151 683.285 300.784 683.834C299.978 683.873 298.934 683.797 298.436 684.503C296.839 686.764 296.612 690.921 296.242 693.598C294.853 703.641 294.742 713.891 296.595 723.881C297.468 728.592 299.021 733.74 299.367 738.487C299.456 739.716 299.274 740.261 298.538 741.212C297.509 740.76 297.322 740.522 296.772 739.485C295.036 736.211 294.5 731.864 293.848 728.261C290.802 711.444 290.725 696.561 295.99 680.106ZM386.765 374.238C386.242 384.247 385.895 393.827 382.187 403.298C378.401 412.968 372.235 419.431 362.677 423.464C342.215 432.097 318.136 427.5 298.333 419.363C308.798 428.099 319.002 436.614 330.978 443.291C343.574 450.313 357.008 455.478 369.154 463.368C374.141 466.607 386.797 474.151 388.045 480.033L387.475 480.552C383.059 479.803 372.001 468.986 367.08 465.876C346.827 453.074 326.559 448.067 307.725 431.557C311.125 437.352 317.309 442.453 321.608 447.723C331.594 459.966 339.143 473.522 337.203 489.773C336.871 492.558 335.323 497.776 333.139 499.512C332.964 499.412 332.732 499.375 332.613 499.213C330.672 496.572 334.201 487.895 334.07 484.373C333.807 477.304 331.423 470.665 328.156 464.454C317.179 443.59 289.313 414.693 266.745 407.793C254.198 403.957 243.409 405.814 232.007 411.818L230.553 411.845C224.796 414.972 222.114 419.895 218.213 424.74L216.688 424.572L216.696 424.831C218.466 419.372 228.451 412.687 229.472 410.398C229.545 410.233 229.57 410.051 229.62 409.878C218.626 415.313 211.184 431.183 207.504 442.16C206.412 445.419 205.263 449.009 204.805 452.42L206.109 453.099C206.26 453.986 206.4 454.87 206.535 455.76C206.678 456.703 206.605 456.325 206.96 457.363L206.911 458.241C206.535 464.366 205.576 470.419 205.406 476.578C205.018 490.66 207.509 505.854 211.191 519.44C212.81 525.413 215.163 531.188 216.785 537.124C223.694 552.878 227.927 570.344 236.964 585.109C257.322 567.09 281.293 558.43 308.578 560.086C315.902 560.53 323.223 561.774 329.891 564.953L327.783 558.824C325.498 551.302 323.078 539.171 319.336 532.64C314.792 524.71 305.882 525.425 298.466 522.655C297.224 522.191 296.849 521.795 296.357 520.601C296.642 520.085 297.204 519.939 297.758 519.786C303.892 518.087 313.098 522.964 318.138 526.119C316.22 515.235 314.077 503.165 309.159 493.224C307.607 490.089 305.165 487.427 303.446 484.367C302.643 482.936 302.188 481.971 302.601 480.359C303.187 480.097 303.42 479.799 304.065 480.06C305.89 480.799 307.264 483.113 308.302 484.713C318.481 500.405 320.159 520.147 324.57 537.879C326.222 544.52 328.235 550.949 330.726 557.327C333.1 562.836 335.654 568.322 337.515 574.03C341.671 571.878 346.974 568.328 351.447 567.266C359.175 562.381 369.388 558.491 378.091 555.683C384.684 544.68 392.88 533.904 396.72 521.552C402.61 502.601 398.742 481.375 407.224 462.96C409.553 457.904 412.836 453.575 417.589 450.543C425.493 445.499 436.178 443.666 445.13 441.262C454.969 438.619 464.797 435.986 474.351 432.423C467.104 430.753 460.013 428.694 453.169 425.755C431.348 416.388 415.214 400.987 406.398 378.866C398.913 378.519 393.603 377.299 386.765 374.238ZM634.7 150.057C634.913 150.122 635.125 150.191 635.339 150.253C643.111 152.505 655.339 150.856 661.334 156.579L661.512 157.416C657.363 160.034 646.574 156.388 641.899 155.554C634.042 154.151 608.97 150.619 601.978 152.791C600.094 153.376 600.5 155.321 598.887 156.289C597.17 157.318 594.491 157.619 592.525 157.973C581.755 159.914 569.756 161.299 563.833 171.885L563.892 172.618C565.145 172.423 566.056 172.064 567.205 171.56C568.176 172.169 568.219 172.15 568.592 173.224C566.958 177.041 562.573 178.36 560.429 181.652C549.736 198.07 545.481 219.33 546.536 238.657C550.831 239.745 553.313 241.364 555.693 245.18C563.805 258.188 562.005 285.368 558.327 299.857C556.931 305.357 554.476 313.057 549.403 316.155C547.61 317.25 546.223 317.255 544.229 316.812C542.547 315.614 542.019 314.397 541.697 312.425C541.182 309.271 541.539 305.698 541.837 302.53C539.043 307.637 534.646 314.815 534.189 320.658C533.301 332.015 539.146 353.275 540.874 365.59C542.29 375.688 541.562 385.653 544.23 395.649C545.19 399.243 548.944 401.79 552.006 403.455C552.327 403.629 552.657 403.786 552.99 403.936C566.998 385.887 580.361 368.264 600.55 356.629C606.854 352.996 613.59 350.49 619.973 347.101C603.246 342.337 591.52 332.321 582.961 317.128C573.636 300.572 571.804 280.848 566.01 262.966C562.161 251.088 554.017 238.658 551.722 226.741C550.259 219.141 550.778 211.678 552.876 204.256C553.892 200.663 556.428 192.215 559.807 190.17C559.988 190.061 560.2 190.012 560.397 189.932C561.524 192.367 561.234 193.314 560.319 195.778C558.215 201.443 552.515 213.729 554.548 219.555L554.948 219.408C555.465 216.7 555.566 213.769 556.902 211.331C557.996 210.589 557.925 210.599 559.231 210.796C560.33 211.701 560.829 212.704 561.48 213.933C565.251 194.69 563.152 179.372 581.811 166.701C593.502 158.762 608.473 156.272 622.301 158.306L626.451 161.786C614.312 165.393 602.429 169.291 590.468 173.441C584.742 175.428 578.948 177.133 573.379 179.547C562.692 202.925 564.554 225.91 571.201 250.055C572.691 255.47 574.042 261.023 576.022 266.281Q576.394 267.29 576.791 268.29C577.364 246.964 587.209 221.179 598.245 203.232C592.994 207.923 588.969 212.976 585.371 219.021C583.737 221.766 582.407 224.99 580.256 227.344C579.448 226.498 579.536 226.353 579.571 225.219C579.764 218.948 587.062 209.755 586.761 209.086L586.89 209.757L586.436 209.251L586.774 210.212L586.892 209.739L585.819 209.843C583.772 212.46 581.616 215.099 579.854 217.919C577.613 221.505 576.146 228.822 572.496 230.903L571.944 230.601C571.173 221.533 577.861 210.958 583.506 204.318C584.885 202.696 586.023 201.238 588.287 201.069L589.391 201.64C589.477 202.729 589.392 203.668 589.24 204.749C592.995 204.37 598.324 197.803 601.948 195.838L607.882 196.692C604.326 202.211 600.275 207.417 596.952 213.08C588.841 226.908 582.663 245.219 580.61 261.205C579.649 268.688 580.311 276.187 579.017 283.67C577.009 279.368 574.802 275.032 573.17 270.575C571.274 265.397 570.219 259.868 568.807 254.538C565.18 240.849 561.506 228.606 562.022 214.182C556.928 225.08 555.7 228.189 559.93 239.897C562.995 248.38 567.175 256.462 570.05 265.013C572.818 273.251 574.367 281.846 576.615 290.228C578.07 295.653 580.105 300.859 581.703 306.224C582.824 296.862 583.68 287.134 586.433 278.08C588.568 271.057 593.631 265.536 596.616 258.947C599.395 252.812 601.051 246.167 603.192 239.796Q604.555 235.768 606.231 231.861Q607.907 227.953 609.885 224.189Q611.864 220.425 614.133 216.829Q616.402 213.233 618.947 209.827C615.887 212.527 611.076 217.882 607.06 218.676C605.62 218.171 604.897 217.6 603.433 218.131C599.442 222.399 597.237 229.064 595.169 234.455L595.622 233.811C597.044 231.812 599.944 228.501 602.505 228.145C602.75 228.111 603 228.153 603.247 228.157C603.621 229.641 602.717 231.517 601.972 232.789C600.335 235.583 597.378 237.468 595.716 240.212C593.377 244.076 591.17 255.683 586.892 257.138C584.918 253.141 589.764 240.004 591.238 235.655C597.764 216.395 609.595 196.175 628.373 186.94C630.461 185.914 633.128 184.966 635.481 185.266L635.886 185.965C635.009 187.761 624.942 192.767 622.499 194.571C614.757 200.289 609.502 207.939 604.445 216.007C608.503 212.576 616.394 204.921 621.891 205.405C622.785 205.484 622.979 205.814 623.646 206.34C623.865 209.998 611.474 229.969 609.148 235.346Q604.685 245.276 601.723 255.751C599.213 264.315 595.869 282.508 591.236 288.99L590.559 289.093C589.419 283.214 592.778 277.477 592.925 271.676C586.188 287.575 587.54 297.065 584.117 312.173L586.642 317.254C588.493 307.907 590.591 298.915 594.545 290.181C599.311 279.651 607.34 271.588 613.109 261.741C617.049 255.018 618.862 247.41 623.286 240.921C625.474 237.711 628.129 234.792 631.374 232.621C633.292 231.338 635.334 230.474 637.465 229.624L637.792 228.942L638.338 228.781L638.07 228.62C640.016 225.734 641.745 222.501 643.852 219.754C646.216 216.669 649.177 213.994 651.381 210.809C654.956 205.641 657.627 199.67 660.909 194.284C652.255 195.922 645.91 197.993 638.656 203.127C635.747 205.185 632.89 207.488 629.75 209.174C631.159 201.598 633.928 193.441 640.412 188.712C642.226 187.39 645.062 186.73 647.287 186.673L647.993 187.236C646.809 190.926 640.324 193.995 637.539 196.767C636.133 198.166 635.028 199.822 633.933 201.468C639.975 197.014 656.158 188.131 663.673 189.471C664.74 189.661 665.232 189.979 666.047 190.645C666.673 194.274 657.603 206.292 655.587 210.393C655.488 210.595 655.377 210.791 655.28 210.995C653.253 215.266 656.256 231.6 652.53 233.534C651.394 233.095 651.205 232.944 650.696 231.727C649.169 228.075 650.499 220.936 650.833 216.935C647.24 222.539 642.899 227.619 639.416 233.292C629.233 249.877 623.136 270.92 621.074 290.144C624.05 280.091 629.092 256.598 638.78 251.628C638.96 251.536 639.573 251.455 639.791 251.422C640.599 256.134 632.868 266.062 630.94 271.001C628.192 278.042 626.582 285.472 623.854 292.564L624.412 291.957C627.064 289.049 631.74 280.754 635.233 279.818L636.062 280.341C636.314 281.788 636.31 283.05 636.226 284.514C637.525 284.049 638.797 281.863 639.319 280.596C642.189 273.621 638.41 253.129 644.7 247.409L645.993 247.129C646.549 248.065 646.6 248.461 646.543 249.591C646.216 256.117 644.336 262.828 643.754 269.427C642.53 283.31 643.464 297.249 640.034 310.889Q638.995 315.072 637.349 319.055C644.987 309.837 656.728 290.601 660.113 279.143C661.836 273.312 662.46 267.341 663.715 261.427C664.311 258.621 665.244 255.788 665.952 252.994C666.458 251.002 667.34 247.127 669.515 246.562C670.369 247.465 670.418 247.629 670.414 248.935C670.396 255.241 663.671 284.31 660.87 289.998C657.211 297.431 651.708 303.601 649.454 311.736C647.116 320.177 648.843 329.85 646.19 337.692C644.83 341.712 640.823 344.645 638.681 348.311C619.927 347.597 595.479 361.807 582.167 374.153Q579.543 376.62 577.008 379.178C605.182 361.385 636.223 351.457 669.563 359.034C676.371 360.581 683.502 362.622 689.95 365.364Q692.093 358.839 694.316 352.34C692.237 347.956 691.525 344.097 690.988 339.294C686.925 342.857 679.259 349.176 673.494 348.611C672.154 348.479 671.701 348.038 670.866 347.054C670.194 343.958 672.087 340.979 673.693 338.457C677.972 331.736 683.632 326.053 688.03 319.453C690.412 315.879 691.948 310.015 695.017 307.281C695.725 307.204 695.958 306.983 696.537 307.521C698.638 309.473 698.787 313.984 698.641 316.632C698.555 318.198 698.379 319.443 697.308 320.614C696.283 320.237 695.985 320.098 695.571 318.96C695.221 317.999 695.219 316.596 695.129 315.564C688.849 325.476 681.208 334.452 675.144 344.446C687.549 340.265 696.386 329.477 702.021 318.052C708.099 305.729 717.344 282.013 712.829 268.574C711.461 264.503 708.598 260.959 706.485 257.245C705.108 265.604 704.206 274.631 701.331 282.606C697.697 292.683 690.472 300.825 685.596 310.248C681.791 317.601 679.488 326.153 674.835 332.981C671.979 337.173 668.227 340.844 664.128 343.812C658.94 347.569 651.803 351.408 645.216 350.45C643.377 350.183 641.872 349.309 640.307 348.358C640.433 348.216 640.557 348.072 640.685 347.931C646.279 341.741 660.166 334.347 663.475 327.729C662.447 326.744 661.612 326.336 661.538 324.807C661.289 319.742 667.767 307.24 669.507 301.746C670.85 297.505 671.578 293.162 672.185 288.766C669.792 292.734 664.521 299.829 659.93 301.163C659.177 301.382 658.826 301.09 658.132 300.834L657.517 299.743C658.243 297.612 661.852 295.159 663.56 293.492C669.69 287.511 673.307 279.172 674.59 270.782C676.523 258.146 671.487 238.294 669.599 225.145C668.62 218.321 668.269 211.489 668.278 204.601C668.286 198.947 668.416 193.185 671.145 188.067C674.236 182.272 680.768 177.813 686.561 174.994C690.864 172.899 694.644 172.164 699.398 172C683.179 156.727 657.759 148.873 635.685 149.981C635.356 149.997 635.028 150.031 634.7 150.057ZM399.882 324.635C403.424 325.837 406.355 327.134 408.049 330.705C408.755 332.194 409.232 334.413 408.383 335.936C407.804 336.974 406.828 337.578 405.67 337.756C403.185 338.137 400.332 336.513 398.583 334.897C394.396 331.028 389.393 323.552 383.015 323.863C380.339 323.994 377.862 325.63 376.176 327.636C372.009 332.59 371.327 339.771 371.985 346.013C372.914 354.829 378.125 363.194 385.069 368.578C388.679 371.376 392.864 373.419 397.397 374.162C400.641 374.694 409.365 372.992 411.127 375.291L410.995 376.036C410.775 377.328 410.406 378.914 410.625 380.21C411.367 384.616 415.53 390.947 418.131 394.594C428.986 409.809 445.5 419.544 463.047 425.199C469.225 427.189 475.715 428.567 481.783 430.812C492.25 427.307 502.899 424.293 513.336 420.737C513.649 413.423 515.118 406.411 516.087 399.182C505.071 401.515 494.903 400.307 485.316 394.005C481.662 391.603 475.793 387.237 474.652 382.908L474.936 381.877C483.239 380.94 491.25 382.501 499.53 382.912C507.403 383.303 515.168 382.844 523.022 382.364C534.69 357.604 536.81 356.311 531.236 329.175C528.318 329.368 523.799 330.071 521.257 328.232C520.717 327.842 520.689 327.74 520.348 327.269C520.799 326.152 520.837 326.22 521.904 325.777C524.476 324.71 527.946 325.352 530.664 325.552C530.638 318.669 530.865 311.693 530.506 304.825C523.615 308.117 520.093 311.952 517.566 319.193C517.155 320.369 516.878 321.764 516.345 322.872L516.608 328.674L516.088 329.474C517.765 337.345 524.37 344.573 524.987 352.426C524.559 352.958 524.158 352.98 523.529 353.211L523.617 353.485L524.433 352.269C522.669 347.949 515.752 332.13 513.265 328.882C512.41 326.631 512.799 323.937 513.143 321.615C514.931 314.157 518.838 306.693 525.703 302.743C527.195 301.885 528.84 301.263 530.439 300.634C527.144 282.898 523.443 258.405 507.488 247.188C500.729 242.435 495.24 243.411 487.622 243.49C484.484 243.523 481.245 243.322 478.147 243.91C464.194 246.56 454.415 259.336 447.204 270.529C433.787 291.354 423.105 312.645 399.882 324.635ZM358.533 567.264L357.763 566.807C350.677 568.769 344.567 574.403 337.504 576.181L336.524 575.434C335.957 575.47 335.561 575.525 335.009 575.363L335.367 574.268C332.292 568.954 323.809 566.237 318.129 564.716C298.651 559.5 272.66 565.153 255.543 575.258C249.137 579.04 243.769 583.756 238.656 589.124C239.259 590.377 239.923 591.613 240.37 592.93C253.431 617.743 263.124 645.598 281.843 667.01C286.742 672.225 292.238 677.43 299.153 679.811C303.922 681.453 308.838 680.793 313.266 678.474C336.911 666.089 350.753 615.686 360.759 591.942C364.618 582.784 372.372 569.294 374.921 560.775C369.354 562.476 363.966 565.15 358.533 567.264ZM559.405 407.581C582.25 402.929 606.721 392.538 630.365 392.931C660.362 390.544 690.101 396.233 718.253 406.249C717.835 405.341 717.393 404.457 716.924 403.573C716.718 403.362 716.508 403.155 716.306 402.941C711.43 397.768 708.164 390.151 704.289 384.175C692.905 366.619 671.082 361.052 651.212 359.956C625.005 358.51 593.089 369.421 573.51 387.128C568.966 391.237 556.754 402.877 555.039 408.38L555.54 408.664L559.405 407.581ZM472.251 227.97C466.404 229.918 442.359 237.652 438.88 241.353L440.263 241.826C436.637 246.644 430.842 249.862 425.677 252.733C405.212 264.106 382.065 271.14 358.932 274.447C348.991 275.869 337.859 277.098 329.207 270.83C325.026 267.801 322.707 263.88 321.422 258.942L320.754 258.68C318.81 259.967 318.393 261.927 317.942 264.087C316.588 270.567 315.481 278.315 318.403 284.453C321.198 286.506 323.838 287.759 327.175 288.64C338.21 291.551 371.563 293.373 382.777 291.604C399.318 288.994 412.254 279.701 425.192 269.751C429.657 266.317 434.311 262.972 438.326 259.011C442.329 255.062 445.04 250.282 449.309 246.485C451.711 244.347 454.998 241.77 458.288 241.563L458.594 242.298L458.521 241.694C458.471 241.911 458.436 242.132 458.371 242.345C457.715 244.494 455.757 245.966 454.143 247.405C442.924 257.358 440.273 269.899 430.278 279.777C422.152 287.808 412.574 294.178 403.275 300.741C390.801 309.546 378.197 318.246 366.245 327.756C366.614 329.972 367.099 331.523 365.65 333.457C364.346 335.196 362.153 336.315 360.671 338.014C363.03 340.246 365.459 342.263 368.03 344.244C368.66 337.288 368.885 328.386 374.807 323.636C378.265 320.862 382.743 320.602 386.969 321.213C389.422 321.568 391.909 322.288 394.285 322.971C406.402 317.452 417.987 307.298 425.997 296.729C439.51 278.9 452.59 242.391 477.357 238.702C482.052 238.003 486.533 238.863 491.067 240.015C487.578 236.823 476.906 228.519 472.251 227.97ZM428.784 671.499C422.373 680.333 415.427 688.783 408.731 697.403C384.446 728.662 351.44 770.472 318.465 791.879C311.831 796.504 304.463 799.192 297.381 802.954C314.571 799.42 344.428 788.201 359.63 779.26C368.972 773.766 377.645 766.973 386.265 760.432C386.466 758.738 386.828 757.077 387.193 755.411C391.308 736.647 398.18 718.797 414.946 708.068C417.512 699.863 421.233 688.62 429.454 684.427C432.993 682.622 435.647 682.761 439.341 683.89C440.352 680.326 441.332 676.614 442.866 673.236C445.339 667.789 448.651 664.727 454.233 662.68Q452.253 653.427 448.903 644.577C441.776 653.165 435.619 662.655 428.784 671.499ZM381.463 204.155C363.857 209.181 340.804 222.091 331.698 238.667C329.784 242.152 329.046 245.299 328.805 249.203C334.816 243.773 340.248 236.763 347.63 233.131C365.004 224.582 389.277 225.92 408.272 223.652C418.587 222.421 429.103 219.927 439.471 219.575C422.508 213.994 402.643 214.809 385.464 219.097C375.087 221.688 364.976 225.375 354.624 228.131C380.581 213.546 395.937 211.279 425.8 214.986C432.083 215.766 439.061 216.107 445.151 217.848C446.877 218.341 448.767 218.794 449.886 220.294C449.495 221.177 448.934 221.243 448.072 221.576C441.427 224.144 433.86 224.922 427.001 227.093C417.24 230.184 407.716 234.058 398.058 237.459C384.691 242.167 370.815 246.492 358.022 252.617C370.05 250.839 382.243 250.473 394.286 248.811C406.042 247.189 417.502 244.11 428.769 240.425C442.172 236.043 454.59 229.18 467.893 224.692C440.89 214.24 412.696 206.699 383.65 212.501C366.356 217.321 352.141 226.555 337.379 236.313C349.231 223.495 363.781 215.634 380.534 211.055Q386.91 209.199 393.345 207.562C389.331 206.547 385.386 205.481 381.463 204.155ZM691.551 203.322C690.962 218.028 690.377 233.322 686.089 247.513C683.782 255.15 679.892 261.677 678.253 269.605C677.433 273.57 676.429 277.681 676.134 281.723C675.887 285.104 676.35 288.494 675.914 291.875C675.031 298.718 672.689 305.604 670.202 312.009C681.492 295.399 692.059 264.436 696.886 244.958C695 248.463 692.719 257.761 689.176 259.258C688.756 258.123 695.457 236.363 696.561 233.894C696.875 233.193 697.267 232.68 697.809 232.142L698.522 232.266C702.257 239.868 699.66 253.739 697.064 261.422C693.998 270.498 689.393 279.066 686.159 288.124C682.554 296.941 678.858 306.199 673.705 314.236C671.283 318.012 667.593 321.075 665.504 325.024C663.877 328.099 665.988 330.651 663.356 333.893C658.696 339.63 651.775 343.999 645.829 348.296C657.693 344.505 667.729 338.228 673.526 326.785C676.184 321.54 677.675 315.705 680.506 310.562C685.943 300.685 693.558 292.228 697.522 281.517C700.225 274.213 700.349 266.445 702.583 259.089C703.784 255.134 705.722 251.402 707.128 247.514C710.284 238.779 709.797 227.996 706.925 219.296C705.942 216.318 704.18 211.489 701.403 209.925C699.995 212.549 701.966 221.379 700.303 222.05C695.874 217.722 694.429 208.826 691.551 203.322ZM370.896 356.992C367.942 359.283 364.892 361.075 364.365 365.07C362.481 379.377 353.207 389.556 342.135 398.201C333.83 404.684 323.364 409.184 312.845 410.306C310.483 410.559 300.279 409.936 299.095 410.791C298.377 411.309 298.229 411.784 298.113 412.614C299.3 415.367 303.179 416.896 305.85 417.935C314.201 421.185 320.293 420.419 328.315 416.787C342.144 410.527 352.271 399.503 358.974 386.047C360.44 382.571 363.488 373.394 366.927 371.853C367.083 371.783 367.256 371.759 367.421 371.711C368.031 372.154 368.349 372.138 368.441 372.962C369.039 378.319 353.851 402.192 349.825 406.608C344.052 412.94 335.52 418.699 327.291 421.13C326.525 421.357 325.697 421.607 324.971 421.927C339.171 421.783 350.644 420.51 361.093 409.812C376.457 394.081 371.324 380.908 373.768 362.005C372.935 360.155 372.188 358.566 370.896 356.992ZM694.871 175.559C687.923 177.362 679.968 182.213 674.9 187.261C671.151 199.349 672.232 213.505 673.6 225.941C674.588 220.759 676.809 203.498 679.913 200.496L680.582 200.663C683.589 206.601 675.504 227.824 675.193 235.515C674.885 243.125 677.782 250.927 679.037 258.389C680.201 254.378 681.546 250.285 682.375 246.199Q685.214 232.155 686.757 217.911C687.356 212.167 687.332 206.027 688.399 200.378C688.6 199.313 688.86 198.531 689.65 197.753C691.677 197.408 692.855 197.837 694.486 198.982C699.373 202.414 702.692 208.445 705.858 213.392C704.899 208.355 702.324 200.411 703.959 195.607L704.734 195.391C707.862 198.523 709.208 210.983 710.348 215.705C710.504 205.415 710.925 186.37 703.202 178.34C701.273 176.335 698.914 175.519 696.155 175.499C695.726 175.496 695.298 175.53 694.871 175.559ZM416.712 198.722C405.101 199.411 393.945 200.462 382.718 203.766C415.121 204.484 453.59 210.865 481.713 227.835C487.033 231.045 491.518 235.307 496.481 238.99C504.785 239.96 510.815 244.137 515.958 250.585C522.156 258.355 525.24 268.303 528.96 277.41C527.437 263.028 522.126 253.377 510.837 244.315C489.244 226.981 458.908 211.451 432.339 203.54C430.992 203.139 427.599 202.393 427.065 201.041C428.662 200.194 431.032 200.405 432.828 200.406C454.055 201.975 478.65 218.418 496.19 229.713C504.865 235.3 514.369 240.39 521.221 248.292Q521.926 249.107 522.597 249.949C515.857 236.538 494.405 208.407 480.29 203.832C474.019 201.8 467.18 201.269 460.67 200.417C475.206 205.675 494.508 209.279 501.445 225.061C502.426 227.296 503.035 229.763 503.721 232.104C498.454 226.394 493.189 219.927 486.898 215.318C472.497 204.768 445.941 199.415 428.377 198.693C424.485 198.533 420.604 198.611 416.712 198.722ZM435.128 266.385C429.04 271.565 422.881 276.969 416.238 281.431C413.035 283.583 400.151 289.917 398.683 291.885C400.983 291.338 403.631 290.814 405.996 290.884C407.198 290.92 406.758 290.71 407.486 291.455C407.408 291.608 407.35 291.773 407.252 291.915C406.038 293.681 402.767 294.864 400.756 295.556C392.981 298.233 383.347 299.795 375.122 302.353C367.005 304.878 359.404 308.772 351.318 311.311C338.601 315.303 327.473 313.227 315.867 307.16L316.323 309.03C317.707 314.858 323.655 317.362 326.516 324.537C331.705 324.696 341.429 320.722 345.803 323.481L345.241 324.927C347.878 325.422 350.742 323.829 353.372 324.446C355.271 324.891 357.843 330.778 358.836 332.601L355.829 335.839L354.537 342.822C355.717 341.107 357.302 339.851 358.544 338.224C359.46 337.024 359.359 336.019 359.226 334.608C359.211 334.447 359.191 334.286 359.174 334.125C359.906 332.565 361.786 331.537 363.171 330.549C362.239 329.45 361.156 328.418 360.162 327.371C365.343 322.798 370.936 318.14 376.564 314.131C396.824 299.7 420.806 287.397 435.128 266.385ZM434.359 242.572C424.87 246.334 415.292 249.502 405.273 251.53C393.21 253.971 380.759 254.606 368.515 255.682C360.844 256.356 352.832 256.841 345.454 259.138C341.725 260.299 332.712 264.355 329.024 262.651C327.999 262.177 326.914 259.588 326.425 258.557L325.793 258.388C325.239 259.096 325.133 258.932 325.198 259.721C325.393 262.109 327.132 264.178 328.648 265.898C335.921 271.673 343.13 272.888 352.195 271.847C376.787 269.024 403.388 258.874 425.334 247.871C427.812 246.629 432.132 245.16 434.15 243.396C434.361 243.212 434.472 242.938 434.633 242.709L434.359 242.572ZM536.517 359.795C526.166 383.049 519.772 393.633 516.077 419.684L527.96 416.074C532.162 414.836 549.166 410.666 550.897 407.539C549.919 404.61 542.591 401.77 540.682 395.55C537.188 384.175 540.696 370.845 536.517 359.795ZM632.635 236.45C621.327 247.678 623.077 251.475 615.975 263.836C612.438 269.993 607.647 275.439 603.725 281.357C598.461 289.3 590.576 307.267 590.393 316.931C590.317 320.967 591.574 324.414 594.429 327.286Q594.859 327.716 595.303 328.131L595.926 328.042L596.365 326.88C598.159 319.472 601.005 303.01 606.774 297.824L608.008 297.658C610.074 299.371 609.985 302.69 610.291 305.193C617.775 296.969 617.764 287.428 619.467 276.997C620.544 270.401 621.973 263.982 624.505 257.782C626.114 253.844 632.929 240.44 632.719 236.904C632.71 236.75 632.663 236.601 632.635 236.45ZM415.947 226.652C409.12 227.882 402.235 229.299 395.325 229.95C375.475 231.82 354.106 230.968 337.882 244.412C335.428 246.447 332.88 248.702 331.061 251.34C329.865 253.075 329.077 254.844 329.455 256.988C329.686 258.293 329.923 258.708 330.969 259.495L331.845 259.513C350.119 252.223 367.668 243.185 386.123 236.319C392.565 233.923 399.254 232.081 405.886 230.297C409.787 229.248 414.128 228.49 417.789 226.781L417.489 226.431L416.517 226.469L416.669 226.433L416.743 226.744C416.528 226.705 416.315 226.652 416.097 226.627C416.047 226.621 415.997 226.644 415.947 226.652ZM315.513 286.658C315.065 291.992 315.082 297.173 315.672 302.494C326.56 309.104 337.289 310.824 349.676 307.752C359.827 305.234 369.507 300.97 379.533 298.041C382.926 296.975 386.45 296.063 389.749 294.742C383.354 295.82 376.976 296.959 370.481 297.217C357.236 297.742 327.969 295.743 317.443 288.152Q316.457 287.432 315.513 286.658ZM287.167 293.514C284.415 295.044 281.925 296.458 278.85 297.236C275.99 297.96 271.73 298.696 270.012 301.339C268.837 303.148 269.148 305.473 269.782 307.412C270.972 311.054 273.04 314.518 275.267 317.612C279.285 317.774 283.617 317.739 286.526 321.002C288.519 323.237 289.196 326.411 289.794 329.266L290.209 329.664C292.55 324.143 293.696 320.309 299.756 318.017C301.675 317.291 303.655 316.851 305.676 316.538L305.144 315.847C299.786 308.823 295.479 297.378 287.167 293.514ZM545.823 242.158C544.934 243.322 543.916 244.323 543.879 245.858C544.661 247.327 546.189 247.9 547.597 248.661C551.739 259.293 551.834 268.895 550.974 280.15C550.791 282.541 550.863 285.955 549.867 288.124C549.507 288.908 549.497 288.865 549.044 289.436L548.206 289.355C545.467 285.004 548.27 268.01 547.691 261.609C547.27 256.956 545.734 252.759 544.179 248.392C545.456 260.613 545.642 273.246 541.997 285.103C540.579 289.718 538.411 294.227 537.206 298.878Q535.445 304.425 533.928 310.044C537.963 302.889 541.661 295.59 544.637 287.926C545.22 289.61 546.018 291.519 546.141 293.303C546.479 298.171 543.692 308.908 545.751 313.012C546.868 313.208 547.184 313.378 548.19 312.718C552.736 309.734 555.316 298.124 556.103 293.161C558.012 281.128 559.573 256.242 551.957 245.876C550.295 243.614 548.613 242.561 545.823 242.158ZM639.29 284.39C630.406 298.401 627.239 314.716 617.63 328.307C615.412 331.445 608.611 336.764 608.976 340.268C610.01 341.185 610.07 341.135 611.463 341.219C617.454 337.486 627.585 319.955 631.861 318.742C632.353 321.246 630.416 325.009 629.197 327.206C626.855 331.315 621.329 339.372 622.356 344.101C622.473 344.639 622.703 344.938 622.978 345.375C624.319 345.899 624.941 345.947 626.313 345.405C633.205 342.685 641.12 331.992 643.662 325.161C644.624 322.573 644.747 319.654 645.001 316.923C643.119 319.401 639.343 325.639 636.499 326.399C635.811 326.066 635.846 326.269 635.678 325.57C635.406 324.444 636.106 321.448 635.44 320.844C635.286 320.705 635.081 320.635 634.902 320.531C633.709 311.965 641.371 293.614 639.29 284.39ZM725.934 290.812C717.93 312.557 707.341 333.132 697.842 354.238L701.794 352.689C716.115 342.277 726.753 327.474 729.685 309.731C730.641 303.944 730.636 297.069 727.219 292.059C726.849 291.516 726.482 291.169 725.934 290.812ZM496.838 761.188C491.571 761.787 484.112 762.209 480.655 766.851C479.473 768.439 479.12 770.295 479.55 772.222C480.674 777.263 486.459 781.402 490.738 783.863C492.276 784.748 493.787 785.32 495.48 785.829L496.263 786.069C496.42 786.116 496.579 786.159 496.737 786.203C502.574 784.571 507.575 779.256 510.577 774.124C512.02 771.656 513.317 768.426 512.374 765.554C511.776 763.731 510.406 762.501 508.683 761.754C505.271 760.274 500.471 760.897 496.838 761.188ZM276.597 372.947C275.42 374.665 274.228 376.518 272.739 377.983C268.092 382.554 255.651 390.22 256.94 397.548C257.279 399.478 258.696 400.896 260.331 401.861C262.651 403.23 265.756 403.74 268.371 404.361C271.288 402.603 274.071 400.812 276.773 398.736C275.862 394.293 272.726 382.032 275.162 378.073C275.633 377.306 277.403 376.935 278.254 376.615L279.377 376.809L279.854 377.613C278.974 386.505 278.548 396.845 284.572 404.178C285.865 405.751 288.429 408.281 290.634 408.381C291.407 408.416 291.584 408.349 292.284 408.221C293.046 407.394 293.414 407.133 293.194 405.896C292.32 400.971 283.755 392.508 281.868 384.959L282.026 384.283C282.709 381.467 285.78 376.248 284.574 373.749C283.602 373.271 283.223 373.039 282.106 373.44C281.566 373.634 280.768 374.339 280.342 374.659C279.474 374.227 278.968 373.742 278.26 373.092L276.597 372.947ZM333.144 357.104C327.798 358.001 323.643 359.942 318.95 362.603C324.212 368.288 329.981 373.89 334.245 380.369C335.676 376.311 332.161 363.866 334.967 361.687C338.186 366.328 338.667 374.723 337.707 380.231C337.448 381.716 337.034 382.712 336.172 383.936C335.044 384.534 334.979 384.629 333.732 384.441C333.5 383.182 333.717 382.482 333.998 381.269C332.285 381.336 329.423 382.818 327.646 383.343L326.198 383.944C329.656 387.204 336.421 383.187 340.135 395.423C347.861 388.105 353.186 380.911 358.345 371.639C353.843 373.378 346.632 375.715 341.98 373.161C340.787 372.507 340.128 371.812 339.738 370.496C338.934 367.79 339.717 363.44 339.943 360.619C337.59 358.248 336.525 357.178 333.144 357.104ZM283.212 342.534C280.247 344.162 277.468 345.758 275.02 348.141C275.25 353.622 274.544 363.933 278.892 367.888C280.277 369.147 282.342 369.736 284.194 369.605C286.858 369.417 289.898 368.632 292.338 367.574L292.348 367.195C291.455 367.169 290.563 367.129 289.669 367.15L288.751 366.84C290.436 361.146 305.662 360.353 299.884 349.625C298.052 346.225 294.686 343.888 291.023 342.827C288.48 342.09 285.814 342.354 283.212 342.534ZM631.799 288.441C629.08 292.01 612.002 309.032 608.234 310.562C606.376 308.871 606.451 306.522 606.233 304.129C604.261 310.278 599.272 326.819 599.701 332.61L600.232 333.313C603.451 332.246 608.643 321.824 610.611 318.642C612.634 316.25 613.382 316.867 613.989 316.303C614.149 316.154 614.023 315.865 614.041 315.647C614.859 320.343 605.413 332.017 603.533 337.384C616.415 330.052 622.691 311.362 628.105 298.311C629.17 295.743 631.349 292.301 631.954 289.708C632.031 289.38 632.056 289.042 632.107 288.709L631.799 288.441ZM725.632 222.769C725.129 233.796 719.643 244.458 717.528 255.309C719.954 260.013 723.165 263.429 726.852 267.186L728.199 268.264C729.348 267.858 729.794 267.549 730.304 266.393C734.711 256.389 732.351 235.721 727.88 226.068C727.318 224.856 726.666 223.634 725.632 222.769ZM257.269 333.085C253.016 333.978 247.656 334.895 245.098 338.832C244 340.521 243.755 342.459 244.322 344.385C245.187 347.319 247.639 349.554 250.274 350.944C254.143 352.984 258.664 353.449 262.959 352.936L268.135 349.57C267.095 348.45 265.98 347.514 265.694 345.951L266.227 345.089C268.721 344.573 271.262 345.442 273.68 346.047C271.105 341.304 267.528 335.074 262.084 333.266C260.612 332.777 258.777 332.772 257.269 333.085ZM376.471 366.201C377.061 382.093 377.187 397.883 365.714 410.361C359.387 417.241 351.02 421.32 342.33 424.362L349.155 423.255C360.124 420.518 370.181 417.116 376.326 406.944C382.367 396.945 383.216 383.683 383.097 372.304C381.017 370.3 378.841 367.815 376.471 366.201ZM344.493 328.807L335.249 329.581C332.975 331.792 331.094 333.803 329.734 336.723C330.081 340.039 330.199 344.622 333.147 346.78C334.924 348.08 336.78 347.862 338.836 347.685C344.673 346.124 349.211 343.908 352.392 338.441C353.421 336.674 354.56 334.182 354.164 332.077C353.909 330.718 352.984 329.797 351.791 329.194C349.47 328.021 346.963 328.495 344.493 328.807ZM296.248 369.93C294.355 371.212 292.457 372.283 291.882 374.661C290.078 382.12 296.588 384.068 289.397 391.502C293.123 397.562 296.748 404.133 304.197 406.028C308.23 407.055 312.39 406.404 316.387 405.542C318.896 404.786 321.47 404.105 323.947 403.255C315.135 401.948 305.267 400.363 299.639 392.558C298.851 391.466 298.341 390.232 297.809 389.004C297.752 388.872 297.692 388.741 297.633 388.609C299.398 382.305 300.349 377.096 297.151 370.978C296.784 370.275 296.906 370.495 296.248 369.93ZM479.401 384.908C487.621 392.159 496.855 397.945 508.29 397.036C510.807 396.836 515.973 395.725 517.86 393.867C518.832 391.283 519.824 388.704 520.766 386.108C513.676 386.646 506.609 387.038 499.5 386.636C492.787 386.256 486.109 385.21 479.401 384.908ZM308.293 318.836C307.051 326.604 299.258 330.309 296.471 337.347C299.469 334.818 303.296 330.463 307.639 330.96C309.868 331.214 311.559 332.772 312.886 334.461L312.51 335.46C310.333 335.359 308.391 335.046 306.277 334.52C305.506 334.991 304.967 335.421 304.359 336.09C302.852 337.654 301.373 339.257 299.829 340.782C301.506 342.316 303.16 343.893 304.874 345.386L317.104 337.986C318.247 335.234 318.984 332.684 319.515 329.755C316.552 325.181 312.647 322.034 308.293 318.836ZM266.414 357.517C260.835 359.327 255.553 361.239 252.764 366.897C251.957 368.533 251.438 370.342 252.182 372.119C253.025 374.13 255.749 375.956 257.774 376.586C258.429 376.789 258.803 376.849 259.446 376.977C264.791 375.723 268.463 371.567 272.441 368.023C271.499 365.032 270.764 359.496 267.756 358.011C267.261 357.766 266.921 357.677 266.414 357.517ZM503.94 787.872C498.522 789.381 494.115 790.077 488.635 788.123C486.542 791.258 484.268 793.99 481.717 796.761C489.386 799.963 495.427 800.313 503.322 797.654C505.892 796.488 508.154 795.205 510.487 793.617L503.94 787.872ZM302.712 280.109C300.347 280.631 298.043 281.163 295.747 281.95C293.729 284.711 291.973 287.33 290.697 290.531C293.181 292.951 295.794 295.314 298.178 297.828L303.066 302.894C304.95 298.213 306.085 286.109 304.127 281.369C303.852 280.702 303.8 280.69 303.42 280.204L302.712 280.109ZM312.09 278.026L307.61 279.522C308.69 288.465 309.638 297.16 304.813 305.248L308.129 309.396C309.216 310.301 309.457 310.533 310.831 310.784C311.643 310.307 312.174 310.183 312.398 309.184C313.101 306.047 312.162 301.105 312.173 297.779C312.191 292.068 313.113 286.349 313.034 280.643C313.017 279.433 313.223 278.992 312.406 278.075L312.09 278.026ZM276.516 321.334C275.01 324.045 274.382 325.85 275.198 328.929C276.434 333.592 280.632 337.468 284.719 339.748C286.512 336.371 286.705 331.744 285.547 328.115C284.788 325.737 283.245 322.983 280.944 321.797C279.644 321.127 277.938 321.301 276.516 321.334ZM359.448 341.404C357.176 345.727 356.25 350.165 357.672 354.952C358.05 356.224 358.588 357.337 359.251 358.479C361.133 357.518 363.059 356.613 364.824 355.447C366.359 354.568 367.851 353.807 369.486 353.128C369.822 351.908 369.678 351.381 369.025 350.276C366.933 346.736 362.765 343.731 359.448 341.404ZM311.026 261.177C308.448 261.606 306.603 262.404 304.984 264.535C303.454 266.549 302.393 269.403 302.74 271.956C302.896 273.107 303.38 274.227 304.294 274.982C305.321 275.831 306.517 276.032 307.78 275.73C308.375 275.588 308.96 275.406 309.543 275.223C310.341 273.673 310.619 272.421 310.95 270.716C311.137 269.753 311.037 270.13 311.525 269.146L311.905 269.061L312.262 270.879L312.913 270.698C314.451 267.867 315.081 264.34 315.893 261.223L311.026 261.177ZM302.206 384.81C303.07 388.605 304.606 392.095 307.939 394.311C311.618 396.757 316.632 397.446 320.921 398.187C320.027 395.522 318.988 393.027 317.8 390.482C313.232 389.148 305.862 387.741 302.206 384.81ZM348.384 357.889C346.163 359.088 344.232 359.994 343.463 362.585C342.838 364.688 343.203 367.363 343.329 369.522C346.34 368.415 349.112 367.642 352.288 367.139C354.316 366.854 356.345 366.525 358.383 366.332C356.914 364.039 355.482 361.723 353.845 359.545C352.113 358.893 350.246 357.982 348.384 357.889ZM304.918 352.845C303.974 357.572 301.838 361.965 299.871 366.34C305.035 367.992 307.785 371.066 311.923 374.27C312.517 374.73 312.421 374.577 313.357 374.771L314.157 373.881C313.42 371.312 312.794 368.713 310.268 367.352C307.635 365.933 304.582 365.759 301.87 364.424C304.12 363.77 308.225 363.161 309.424 360.954C309.809 360.245 309.647 359.586 309.434 358.833C308.865 356.82 306.299 354.42 304.918 352.845ZM335.331 351.644L338.589 354.602C339.743 355.546 340.653 356.709 342.284 356.567C343.89 356.427 346.115 354.905 347.582 354.135C349.549 354.682 351.595 355.146 353.518 355.825C353.559 351.447 353.667 347.128 354.537 342.822C349.642 349.055 343.842 350.641 336.383 351.528Q335.857 351.59 335.331 351.644ZM301.213 369.87C302.43 374.178 303.478 378.65 305.127 382.813C309.827 383.346 319.423 387.374 323.379 384.648C324.123 384.135 324.034 384.326 324.167 383.887C322.147 383.124 319.978 382.017 317.792 382.113C316.061 383.028 314.597 384.152 312.625 383.693C312.459 382.893 312.46 382.592 312.569 381.815C309.82 377.771 305.683 372.082 301.213 369.87ZM278.57 403.543C277.616 404.068 274.353 405.473 274.041 406.334C281.073 409.547 286.971 414.623 293.883 417.771L296.017 418.359L296.527 417.994C296.434 416.402 296.482 415.116 295.508 413.767C292.469 411.654 288.65 411.852 285.546 409.999C282.999 408.479 281.006 404.691 278.57 403.543ZM609.257 162.172C600.182 163.574 592.516 165.099 584.58 169.926C583.22 170.753 581.744 171.487 580.721 172.731L581.222 172.803C585.179 171.384 608.689 164.004 609.671 162.175L609.257 162.172ZM223.89 565.351C223.663 569.762 224.149 583.177 226.578 586.503C226.839 586.86 227.079 587.015 227.416 587.279C228.013 580.208 229.694 571.495 224.286 565.705C224.165 565.575 224.022 565.469 223.89 565.351ZM324.776 388.138L323.032 388.51C322.479 389.528 322.348 390.104 322.729 391.247C323.251 392.812 324.221 394.412 324.972 395.889C326.775 395.199 328.592 394.534 330.372 393.788L334.622 392.059C331.295 389.833 328.857 388.581 324.776 388.138ZM580.917 152.563C576.195 154.015 573.961 156.051 570.565 159.601C574.369 158.184 578.171 156.986 582.083 155.902C586.703 154.793 591.32 153.972 596.004 153.207C590.996 152.945 585.931 152.512 580.917 152.563ZM313.136 345.514L308.177 348.336C309.778 350.02 311.252 352.133 313.713 352.34C316.101 350.994 318.024 350 318.843 347.235C318.381 346.145 318.27 345.83 317.027 345.449C315.998 345.134 314.181 345.409 313.136 345.514ZM320.181 353.421C317.478 355.159 316.217 355.995 315.397 359.196C315.738 360.315 315.685 360.381 316.646 361.021C317.593 360.737 318.053 360.66 318.789 359.971C321.047 358.492 323.547 357.123 325.335 355.079L325.377 354.186C324.038 353.219 321.78 353.352 320.181 353.421ZM326.351 344.892C324.934 345.733 323.678 346.312 322.915 347.852C322.975 349.181 323.086 349.781 324.176 350.655C325.864 352.01 328.202 353.013 330.123 354.017L331.472 354.275C331.882 352.674 330.628 350.973 329.815 349.595C329.107 348.395 327.672 345.264 326.351 344.892ZM329.678 328.318C327.7 329.232 324.342 330.822 323.831 333.235C323.589 334.379 323.754 335.315 324.459 336.244C324.805 336.699 325.624 337.22 326.056 337.546C327.379 335.336 330.366 331.042 330.421 328.567L329.678 328.318ZM334.647 396.489L327.849 398.391L326.162 401.86L326.431 402.447L327.613 402.12C330.423 401.038 334.044 399.963 336.044 397.636L335.841 396.898L334.647 396.489ZM642.379 334.925C639.541 337.585 635.482 340.614 634.155 344.341L634.245 345.191C637.201 343.523 641.207 341.15 642.241 337.688C642.556 336.635 642.5 335.988 642.379 334.925ZM321.619 374.325C320.526 375.544 319.624 376.137 319.4 377.784C320.634 378.834 322.217 378.823 323.823 378.686C324.062 378.665 324.301 378.639 324.54 378.616L326.745 377.884L326.816 376.944C325.53 375.515 323.472 374.712 321.619 374.325ZM397.204 327.266C399.419 330.465 401.69 334.059 405.807 334.817C404.965 332.322 404.102 330.145 401.675 328.815C400.367 328.097 398.645 327.638 397.204 327.266ZM314.776 363.999L313.456 365.462C313.698 367.551 316.413 371.522 317.966 373.059C318.265 372.047 318.442 372.001 318.094 370.967C317.439 369.026 318.032 366.577 316.814 364.931L314.776 363.999ZM287.807 376.878C287.524 378.532 287.203 380.124 286.76 381.743C286.375 383.149 285.921 384.707 286.612 386.102C286.906 386.697 287.283 386.974 287.827 387.298C289.438 385.082 289.63 383.316 289.166 380.642C288.962 379.464 288.655 377.73 287.807 376.878Z"/>
	<path fill="white" transform="matrix(0.858398 0 0 0.858398 -0.000244141 0)" d="M469.419 727.146C470.38 727.312 471.223 727.573 472.148 727.869C473.048 729.166 472.958 729.685 473.055 731.226C471.842 731.167 470.763 731.021 469.578 730.752C468.89 729.457 469.247 728.58 469.419 727.146Z"/>
	<path fill="white" transform="matrix(0.858398 0 0 0.858398 -0.000244141 0)" d="M491.729 755.09C496.449 754.82 500.822 755.394 505.333 756.774L492.946 757.569C488.999 758.395 485.128 759.644 481.26 760.781C484.628 758.26 487.73 756.446 491.729 755.09Z"/>
	<path fill="#151313" transform="matrix(0.858398 0 0 0.858398 -0.000244141 0)" d="M610.814 280.801C611.403 281.004 611.668 281.29 612.126 281.698C612.974 284.192 612.724 287.331 611.566 289.709C610.271 292.37 606.914 293.715 605.255 296.255C600.654 303.299 597.963 312.102 594.618 319.817L594.156 319.705C593.354 318.954 593.102 318.825 593.031 317.662C592.524 309.41 604.885 287.037 610.814 280.801Z"/>
	<path fill="#151313" transform="matrix(0.858398 0 0 0.858398 -0.000244141 0)" d="M473.275 231.668C474.735 231.617 475.447 231.418 476.739 232.145L477.009 233.259C474.26 237.578 455.998 239.588 450.571 242.212C443.139 245.806 437.676 255.236 431.705 260.949C424.241 268.091 415.156 274.848 406.231 280.013C387.712 290.731 365.419 292.841 344.794 287.426L336.785 284.772C377.962 288.905 400.919 285.805 431.415 255.311C446.47 240.257 451.275 235.058 473.275 231.668Z"/>
	<path fill="#151313" fill-opacity="0.98823529" transform="matrix(0.858398 0 0 0.858398 -0.000244141 0)" d="M336.524 575.434L337.504 576.181C344.567 574.403 350.677 568.769 357.763 566.807L358.533 567.264C353.745 569.985 348.496 572.061 343.533 574.463C334.526 578.823 323.672 584.756 316.165 591.399C313.551 593.712 304.27 604.659 301.619 605.059C301.168 604.438 300.856 604.341 301.007 603.513C302.468 595.547 323.242 582.081 330.452 577.796C331.887 576.943 333.41 575.863 335.009 575.363C335.561 575.525 335.957 575.47 336.524 575.434Z"/>
	<path fill="#151313" transform="matrix(0.858398 0 0 0.858398 -0.000244141 0)" d="M497.658 328.585L498.55 328.776L498.902 329.909L498.916 329.179C499.113 330.111 498.901 330.123 498.466 330.923C492.633 334.833 483.794 334.082 477.121 333.747L475.522 332.949L475.435 331.995C478.292 329.415 487.776 330.478 491.771 329.985C493.776 329.738 495.725 329.156 497.658 328.585Z"/>
	<path fill="#151313" transform="matrix(0.858398 0 0 0.858398 -0.000244141 0)" d="M486.221 307.695Q488.448 307.656 490.674 307.706C493.45 307.781 496.491 308.464 498.478 310.537L498.428 311.445C494.878 313.297 489.842 311.294 485.968 311.55C483.309 311.726 480.827 312.775 478.368 313.723C474.888 315.462 471.756 317.336 467.796 317.556L467.337 316.997C467.615 316.467 467.631 316.386 468.073 315.851C472.254 310.789 480.009 308.603 486.221 307.695Z"/>
	<path fill="#151313" transform="matrix(0.858398 0 0 0.858398 -0.000244141 0)" d="M384.025 336.079Q385.129 336.261 386.203 336.574C390.861 337.94 396.17 344.815 398.423 349.055C398.951 350.049 399.537 350.98 399.187 352.088C394.046 352.332 389.494 342.347 385.69 339.305C385.566 339.206 385.438 339.111 385.312 339.014C383.648 339.624 381.908 340.119 380.968 341.75C379.166 344.873 382.06 349.35 382.884 352.482C383.216 353.744 383.415 354.902 382.76 356.085L381.821 356.117C379.965 354.851 378.926 353.305 378.097 351.217C376.889 348.173 376.364 344.184 377.841 341.138C379.238 338.258 381.115 337.171 384.025 336.079Z"/>
	<path fill="#151313" fill-opacity="0.98039216" transform="matrix(0.858398 0 0 0.858398 -0.000244141 0)" d="M516.608 328.674C517.41 330.816 517.854 333.083 518.76 335.184C521.9 342.471 529.729 352.51 525.912 360.872C524.461 364.053 521.468 365.86 518.268 366.954C514.277 368.317 508.391 368.635 504.518 366.704C503.21 366.053 502.267 365.544 501.535 364.291C507.465 362.04 520.002 367.531 523.199 359.66C524.877 355.528 522.636 349.875 520.85 346.051C518.392 340.786 514.013 334.704 513.265 328.882C515.752 332.13 522.669 347.949 524.433 352.269L523.617 353.485L523.529 353.211C524.158 352.98 524.559 352.958 524.987 352.426C524.37 344.573 517.765 337.345 516.088 329.474L516.608 328.674Z"/>
	<path fill="#151313" transform="matrix(0.858398 0 0 0.858398 -0.000244141 0)" d="M627.901 226.251C628.483 226.469 628.701 226.752 629.13 227.187C628.885 231.86 618.172 244.705 614.878 249.209L614.119 249.531L613.558 249.205C613.134 241.426 623.2 231.722 627.901 226.251Z"/>
	<path fill="#151313" transform="matrix(0.858398 0 0 0.858398 -0.000244141 0)" d="M646.246 206.496C647.062 206.945 647.357 207.204 647.799 208.026C647.561 210.274 645.831 211.445 644.087 212.627C640.648 214.957 636.625 216.514 633.261 218.93C615.62 231.599 615.438 240.858 605.267 257.733L604.927 258.286L603.707 257.632C603.207 256.094 603.325 254.972 603.826 253.46C611.395 230.644 625.18 217.183 646.246 206.496Z"/>
	<path fill="#151313" transform="matrix(0.858398 0 0 0.858398 -0.000244141 0)" d="M666.515 213.777L667.001 213.987C667.52 214.861 667.684 215.108 667.538 216.17C666.931 220.579 662.473 226.067 660.553 230.25C654.525 243.386 651.051 258.707 650.493 273.128C652.879 269.829 655.062 266.256 657.754 263.202C658.954 261.84 660.065 260.484 661.945 260.351L662.515 261.219C662.563 262.941 662.072 263.89 661.278 265.395C659.211 268.565 655.166 275.82 651.219 276.57C650.19 276.765 649.256 276.463 648.598 275.633C647.224 273.897 647.172 270.905 647.209 268.815C647.476 253.715 655.377 224.389 666.515 213.777Z"/>
	<path fill="#151313" transform="matrix(0.858398 0 0 0.858398 -0.000244141 0)" d="M644.093 171.23C647.16 171.175 650.738 170.862 653.607 172.034L653.471 172.752C651.312 174.063 649.25 174.281 646.805 174.648C649.342 175.111 652.96 175.626 654.924 177.366L654.849 178.223C649.67 180.834 642.332 178.292 636.728 179.856C631.103 181.425 626.269 187.105 620.576 189.131C619.264 189.598 618.522 189.83 617.237 189.271L617.935 189.002L617.296 188.538L617.858 188.542C620.26 186.314 623.116 184.365 625.669 182.283C627.679 180.988 629.817 179.796 631.457 178.039C626.575 180.129 613.866 191.044 610.767 190.75L610.35 189.811C610.635 187.982 611.286 186.659 612.45 185.209C618.167 178.089 635.165 172.026 644.093 171.23Z"/>
	<path fill="#151313" transform="matrix(0.858398 0 0 0.858398 -0.000244141 0)" d="M575.504 202.433C577.434 199.455 579.392 196.556 581.713 193.863C595.081 178.351 616.349 164.465 637.156 163.071C650.35 162.187 665.161 166.265 675.17 175.082C676.155 176.392 676.986 177.293 677.037 179.012L676.52 179.995C675.252 180.156 674.988 180.145 673.909 179.291C673.344 178.844 672.838 178.12 672.38 177.56C671.584 176.815 670.781 176.088 669.93 175.406C661.236 168.44 642.314 164.554 631.699 167.892C624.628 170.116 618.554 174.721 611.899 177.866C608.208 179.609 604.419 178.877 600.948 181.258C597.035 183.944 593.328 187.825 590.083 191.289C586.576 195.033 579.003 206.547 573.91 206.695C573.172 206.717 573.039 206.284 572.58 205.795C572.005 203.748 572.052 201.921 572.343 199.817C573.011 194.993 574.645 187.165 578.795 184.214C579.832 183.476 579.333 183.594 580.485 183.786C581.137 186.09 576.23 198.752 575.504 202.433Z"/>
	<path fill="#151313" transform="matrix(0.858398 0 0 0.858398 -0.000244141 0)" d="M296.006 453.156C297.302 453.5 298.467 453.845 299.541 454.691C306.088 459.848 312.076 474.337 313.269 482.491C312.073 482.485 311.372 482.461 310.306 481.897C307.989 477.978 307.472 473.298 305.346 469.314C302.451 463.886 297.327 459.317 296.006 453.156Z"/>
	<path fill="#151313" fill-opacity="0.96862745" transform="matrix(0.858398 0 0 0.858398 -0.000244141 0)" d="M204.805 452.42C205.263 449.009 206.412 445.419 207.504 442.16C211.184 431.183 218.626 415.313 229.62 409.878C229.57 410.051 229.545 410.233 229.472 410.398C228.451 412.687 218.466 419.372 216.696 424.831L216.688 424.572L218.213 424.74C222.114 419.895 224.796 414.972 230.553 411.845L232.007 411.818C216.634 423.8 210.816 438.7 206.96 457.363C206.605 456.325 206.678 456.703 206.535 455.76C206.4 454.87 206.26 453.986 206.109 453.099L204.805 452.42Z"/>
	<path fill="#151313" fill-opacity="0.98823529" transform="matrix(0.858398 0 0 0.858398 -0.000244141 0)" d="M240.37 592.93C253.431 617.743 263.124 645.598 281.843 667.01L279.363 668.975C262.346 648.136 248.699 618.796 237.331 594.39C238.822 595.482 239.491 597.105 240.866 598.268C240.601 596.807 240.314 595.367 240.342 593.874C240.347 593.559 240.36 593.245 240.37 592.93Z"/>
</svg>
